<?xml version="1.0" standalone="no"?>
<!DOCTYPE svg PUBLIC "-//W3C//DTD SVG 20010904//EN"
 "http://www.w3.org/TR/2001/REC-SVG-20010904/DTD/svg10.dtd">
<svg version="1.0" xmlns="http://www.w3.org/2000/svg"
 width="1600.000000pt" height="1873.000000pt" viewBox="0 0 1600.000000 1873.000000"
 preserveAspectRatio="xMidYMid meet">

<g transform="translate(0.000000,1873.000000) scale(0.100000,-0.100000)"
fill="#000000" stroke="none">
<path d="M11428 18563 c6 -2 18 -2 25 0 6 3 1 5 -13 5 -14 0 -19 -2 -12 -5z"/>
<path d="M11328 18553 c6 -2 18 -2 25 0 6 3 1 5 -13 5 -14 0 -19 -2 -12 -5z"/>
<path d="M11018 18523 c7 -3 16 -2 19 1 4 3 -2 6 -13 5 -11 0 -14 -3 -6 -6z"/>
<path d="M10898 18513 c7 -3 16 -2 19 1 4 3 -2 6 -13 5 -11 0 -14 -3 -6 -6z"/>
<path d="M10788 18503 c7 -3 16 -2 19 1 4 3 -2 6 -13 5 -11 0 -14 -3 -6 -6z"/>
<path d="M37 18068 c-15 -12 1 -29 136 -143 201 -173 237 -201 267 -209 23 -6
23 -6 5 5 -16 10 -147 120 -359 300 -26 23 -29 29 -17 43 11 13 11 16 -1 16
-8 0 -22 -6 -31 -12z"/>
<path d="M17 17888 c5 -166 25 -666 88 -2108 69 -1581 73 -1686 105 -2420 16
-377 32 -734 35 -795 8 -178 24 -532 35 -800 6 -137 21 -502 35 -810 35 -790
60 -1373 95 -2180 17 -385 39 -902 50 -1150 11 -247 33 -763 50 -1145 16 -382
37 -848 45 -1035 8 -187 24 -549 35 -805 54 -1266 130 -2928 140 -3055 6 -81
27 -173 114 -490 149 -539 254 -909 271 -947 l14 -33 1 50 2 50 18 -60 19 -60
-4 90 c-3 50 -12 281 -20 515 -19 520 -65 1799 -105 2885 -16 446 -46 1240
-65 1765 -36 976 -89 2414 -195 5305 -33 897 -87 2373 -120 3280 -33 908 -76
2062 -94 2565 l-34 915 -51 45 -51 45 0 90 0 90 -78 61 c-42 34 -134 112 -204
173 -69 61 -128 111 -130 111 -3 0 -3 -64 -1 -142z"/>
<path d="M914 17533 c4 -82 13 -344 21 -583 14 -403 27 -765 40 -1120 3 -80
12 -334 20 -565 8 -231 26 -737 40 -1125 14 -388 36 -1024 50 -1415 13 -390
27 -766 30 -835 2 -69 7 -195 10 -280 7 -203 23 -668 30 -845 12 -320 27 -754
60 -1685 19 -542 37 -1046 40 -1120 5 -123 17 -464 45 -1260 30 -867 48 -1347
55 -1530 3 -69 44 -1209 90 -2535 47 -1325 88 -2453 91 -2505 5 -78 8 -91 18
-77 8 10 11 41 9 84 -5 108 -42 1125 -53 1488 -6 182 -17 494 -25 695 -8 201
-22 583 -30 850 -8 267 -24 708 -35 980 -10 272 -21 585 -25 695 -6 227 -13
433 -20 615 -17 413 -43 1142 -50 1415 -3 110 -8 245 -10 300 -3 55 -10 224
-15 375 -6 151 -12 318 -15 370 -2 52 -7 181 -10 285 -12 447 -19 642 -45
1310 -14 361 -19 505 -25 725 -7 239 -23 686 -30 835 -12 253 -25 605 -30 825
-7 286 -21 670 -40 1090 -18 394 -23 549 -30 870 -5 228 -15 502 -30 780 -2
52 -7 145 -10 205 -3 61 -8 153 -10 205 -3 52 -8 196 -10 320 -3 124 -8 302
-11 395 -3 94 -7 208 -8 255 -2 47 -6 114 -9 150 -4 36 -9 135 -12 220 -10
313 -25 708 -30 825 -2 66 -8 198 -11 293 -4 102 -11 172 -17 172 -6 0 -7 -53
-3 -147z"/>
<path d="M12159 16752 c-45 -3 -47 -4 -53 -40 -3 -20 -6 -65 -6 -98 0 -37 -5
-66 -12 -72 -7 -5 -55 -13 -107 -17 l-93 -7 4 106 4 106 -53 0 -53 0 0 -35 c0
-41 -17 -345 -25 -450 l-5 -70 53 3 54 4 6 115 c4 64 9 118 12 121 6 7 188 22
196 16 4 -2 5 -56 2 -119 l-6 -115 39 0 c21 0 44 4 51 8 8 5 17 91 28 265 9
141 15 262 13 269 -2 9 -18 12 -49 10z"/>
<path d="M11543 16710 c-149 -23 -263 -159 -263 -314 0 -169 99 -258 270 -242
89 8 123 23 116 50 -3 12 -6 28 -6 37 0 14 -11 16 -88 11 -88 -5 -88 -5 -125
28 -23 20 -41 47 -48 72 -21 78 15 187 76 234 33 25 49 29 124 34 l85 5 10 33
c6 22 6 36 -2 44 -14 14 -86 18 -149 8z"/>
<path d="M10986 16671 l-60 -6 -93 -275 c-51 -151 -93 -278 -93 -282 0 -4 25
-8 55 -8 l54 0 24 78 23 77 75 7 c40 3 77 4 81 2 3 -2 12 -29 19 -58 17 -76
18 -78 81 -74 l55 3 -67 270 c-47 193 -71 270 -81 271 -8 0 -41 -2 -73 -5z
m33 -191 c11 -56 21 -107 21 -114 0 -14 -42 -26 -92 -26 -24 0 -29 4 -25 18 2
9 17 63 32 120 16 56 31 102 35 102 4 0 17 -45 29 -100z"/>
<path d="M10486 16639 c-60 -5 -110 -10 -112 -12 -6 -5 -27 -547 -22 -552 2
-2 76 1 163 8 l160 12 3 48 3 49 -38 -6 c-21 -3 -69 -7 -108 -8 l-70 -3 1 67
c0 38 4 71 8 75 4 4 49 9 101 11 l95 4 0 48 0 48 -100 -5 -101 -6 7 59 c4 32
7 60 8 61 1 1 47 5 104 9 l102 7 0 48 0 49 -47 -1 c-27 -1 -97 -6 -157 -10z"/>
<path d="M9975 16606 l-80 -11 -6 -75 c-3 -41 -9 -166 -13 -277 l-8 -203 55 0
c41 0 56 4 61 16 3 9 6 60 6 115 l0 99 44 0 c56 0 65 -12 91 -118 l21 -87 58
-3 c49 -3 58 -1 53 12 -3 8 -11 43 -17 78 -16 91 -27 122 -55 148 l-25 23 39
34 c69 58 80 156 25 214 -38 40 -121 52 -249 35z m150 -101 c57 -56 9 -145
-79 -145 l-46 0 0 79 c0 87 1 89 63 90 28 1 45 -6 62 -24z"/>
<path d="M9360 16568 c-120 -15 -107 8 -114 -205 -3 -104 -9 -230 -12 -280
l-5 -93 38 0 c80 0 83 3 83 89 0 42 3 93 6 114 6 35 9 37 44 37 50 0 66 -21
85 -110 25 -121 19 -113 82 -107 30 3 56 7 58 9 4 4 -19 102 -41 175 -8 29
-24 59 -36 67 -20 14 -20 15 20 53 62 59 73 139 28 207 -26 41 -119 58 -236
44z m132 -108 c41 -51 -4 -140 -70 -140 -17 0 -37 -3 -46 -6 -14 -5 -16 5 -16
74 0 66 3 83 18 92 27 16 94 5 114 -20z"/>
<path d="M9039 16543 c-26 -4 -26 -4 -32 -125 -4 -67 -7 -151 -7 -187 0 -75
-26 -143 -60 -161 -11 -6 -39 -10 -62 -8 -31 2 -46 10 -62 31 -20 27 -21 38
-18 234 l4 206 -53 -6 c-29 -4 -56 -12 -61 -19 -5 -7 -7 -105 -6 -218 3 -196
4 -207 27 -247 64 -112 256 -110 350 4 42 51 59 139 65 341 l5 162 -32 -1
c-18 -1 -44 -4 -58 -6z"/>
<path d="M8295 16501 c-143 -37 -231 -163 -228 -326 3 -164 105 -266 252 -252
158 14 256 122 268 296 9 123 -34 218 -115 260 -43 22 -134 33 -177 22z m121
-122 c56 -53 68 -177 25 -273 -33 -76 -112 -107 -181 -71 -47 24 -64 68 -65
160 0 99 29 166 85 197 44 24 102 19 136 -13z"/>
<path d="M7904 16474 c-6 -3 -33 -61 -60 -129 -27 -69 -51 -125 -54 -125 -3 0
-26 53 -51 118 l-46 117 -63 -3 c-35 -1 -65 -3 -66 -5 -1 -1 33 -72 76 -157
l79 -155 1 -122 0 -123 60 0 60 0 0 123 0 122 94 173 93 172 -56 -1 c-31 0
-61 -3 -67 -5z"/>
<path d="M7091 16429 c-153 -30 -250 -142 -259 -300 -11 -196 98 -301 298
-286 41 3 98 14 126 23 l51 16 7 61 c3 33 6 103 6 155 l0 95 -77 -7 c-42 -3
-89 -6 -105 -6 -27 0 -28 -2 -28 -51 l0 -52 45 6 45 7 0 -70 0 -69 -46 -7
c-91 -13 -168 32 -192 114 -16 52 -15 78 3 139 32 107 148 161 281 131 31 -7
32 -6 43 39 7 25 9 48 7 51 -8 7 -95 21 -131 20 -16 0 -50 -4 -74 -9z"/>
<path d="M6631 16191 c2 -115 2 -208 0 -206 -2 3 -20 42 -41 87 -21 46 -67
135 -103 198 l-65 115 -68 -4 c-38 -2 -71 -5 -74 -8 -3 -3 -7 -135 -8 -295 -4
-269 -3 -290 13 -284 9 3 34 6 56 6 l39 0 0 215 c0 118 3 215 8 215 4 0 17
-24 30 -53 12 -28 60 -121 105 -204 l82 -153 67 0 68 0 0 290 0 290 -56 0 -56
0 3 -209z"/>
<path d="M6043 16363 c-10 -3 -13 -72 -13 -294 l0 -290 58 3 57 3 5 293 5 292
-50 -1 c-27 0 -56 -3 -62 -6z"/>
<path d="M5503 16338 l-63 -10 0 -294 0 -294 69 0 c120 0 244 31 314 78 77 52
124 174 114 295 -16 190 -164 266 -434 225z m227 -107 c20 -10 44 -36 58 -62
20 -38 23 -54 19 -115 -7 -129 -74 -200 -198 -212 l-49 -5 0 207 0 206 68 0
c46 0 78 -6 102 -19z"/>
<path d="M5201 16198 c0 -68 4 -162 7 -211 4 -48 4 -86 1 -85 -4 2 -38 64 -76
138 -38 74 -86 163 -107 198 l-37 62 -74 0 -75 0 0 -295 0 -295 55 0 55 0 2
223 3 222 40 -80 c22 -44 73 -140 114 -212 l73 -133 64 0 64 0 0 295 0 295
-55 0 -55 0 1 -122z"/>
<path d="M4407 16273 c-3 -4 -33 -109 -67 -233 -34 -124 -70 -254 -81 -289
-10 -35 -19 -67 -19 -72 0 -12 87 -12 109 1 12 6 23 31 31 70 7 33 18 66 24
74 7 10 37 15 91 18 l80 3 24 -77 24 -77 61 6 c34 3 62 7 64 8 1 1 -37 130
-86 286 l-89 284 -81 3 c-44 1 -82 -1 -85 -5z m104 -168 c9 -39 24 -91 32
-117 14 -45 14 -47 -7 -52 -25 -7 -116 -8 -116 -1 0 2 11 48 25 102 14 54 25
109 25 121 0 45 23 15 41 -53z"/>
<path d="M3840 16247 l-75 -12 4 -295 c1 -162 4 -296 5 -297 0 -1 28 1 61 4
l60 5 -3 109 -4 109 55 0 c101 0 186 45 218 114 43 95 13 208 -65 245 -53 25
-161 33 -256 18z m151 -87 c34 0 69 -44 69 -87 0 -68 -52 -113 -130 -113 l-40
0 0 99 0 100 28 4 c15 2 33 2 40 0 8 -1 22 -3 33 -3z"/>
<path d="M3594 16233 l-62 -4 -30 -67 c-16 -37 -35 -86 -42 -110 -7 -23 -16
-42 -20 -42 -3 0 -28 47 -56 104 l-49 103 -65 -5 c-36 -2 -67 -6 -68 -8 -2 -1
25 -51 61 -111 35 -59 72 -123 81 -141 l17 -33 -78 -147 c-43 -81 -79 -150
-81 -154 -5 -11 92 -10 120 1 18 7 32 33 63 115 22 58 43 106 48 106 4 0 31
-48 60 -106 l52 -106 62 4 c34 2 65 7 68 10 3 3 -32 70 -79 149 l-85 144 79
152 c43 84 76 152 72 151 -4 -1 -35 -3 -68 -5z"/>
<path d="M2930 16198 c-96 -5 -176 -10 -177 -12 -2 -2 -1 -138 3 -302 l7 -299
181 11 c100 6 182 12 184 13 1 0 2 24 2 51 l0 50 -125 -6 -125 -7 0 75 c0 89
-3 88 133 88 l87 0 0 51 0 52 -109 -5 -109 -4 -5 65 c-3 36 -3 68 0 71 2 3 56
7 119 8 l114 4 0 54 c0 30 -1 53 -2 53 -2 -1 -82 -6 -178 -11z"/>
<path d="M12621 15766 c-53 -18 -88 -49 -112 -101 -42 -91 -12 -154 96 -198
84 -34 95 -42 95 -76 0 -47 -39 -73 -107 -72 -32 0 -69 1 -82 3 -21 3 -26 -3
-34 -35 -13 -55 -2 -62 96 -61 88 1 141 20 184 66 29 30 53 89 53 128 0 67
-30 94 -162 149 -42 17 -48 24 -48 50 0 20 9 36 28 51 23 19 36 21 93 17 l67
-4 12 39 c6 22 9 42 6 45 -13 13 -144 12 -185 -1z"/>
<path d="M12163 15733 c-52 -5 -48 9 -63 -278 -6 -115 -13 -223 -15 -239 l-5
-29 102 7 c57 3 129 9 161 13 l57 6 0 48 c0 34 -4 47 -12 45 -7 -3 -53 -7
-102 -10 l-89 -6 7 117 c3 65 9 166 13 226 3 62 2 106 -3 105 -5 -1 -28 -3
-51 -5z"/>
<path d="M11828 15706 c-64 -6 -119 -14 -122 -17 -7 -7 -38 -530 -32 -536 5
-5 254 15 292 22 18 4 23 13 26 50 l3 46 -80 -7 c-145 -12 -131 -19 -126 56 2
36 5 68 7 71 2 4 44 10 94 14 l90 7 0 44 0 45 -90 -7 -90 -7 0 60 c0 60 0 61
31 67 17 3 48 6 68 6 20 0 53 3 74 6 36 6 37 8 37 50 0 51 15 49 -182 30z"/>
<path d="M11443 15676 c-78 -7 -146 -15 -149 -19 -6 -6 -32 -403 -34 -507 l0
-35 157 13 c87 7 159 14 160 16 2 1 6 24 9 50 5 37 4 46 -7 42 -8 -2 -59 -7
-113 -11 l-99 -6 6 67 c4 37 9 69 12 72 3 3 43 8 90 12 47 4 87 9 89 11 2 2 6
22 7 43 l4 40 -65 -3 c-36 -2 -78 -4 -95 -5 l-30 -1 3 55 c2 30 7 58 10 62 4
3 50 10 102 15 l95 8 3 48 c2 26 -1 46 -5 46 -4 -1 -72 -7 -150 -13z"/>
<path d="M10873 15631 c-24 -4 -45 -10 -49 -13 -3 -4 -10 -87 -14 -185 -5 -98
-11 -217 -14 -265 l-6 -88 54 0 54 0 6 63 c4 34 7 85 9 112 l2 50 45 0 c53 0
61 -12 85 -127 l16 -78 42 0 c68 0 70 4 47 109 -19 92 -29 113 -59 139 -13 11
-10 16 21 42 50 41 73 104 59 158 -7 24 -24 51 -42 66 -28 24 -37 26 -122 25
-51 -1 -111 -5 -134 -8z m186 -102 c31 -55 -16 -124 -91 -135 l-48 -6 0 70 c0
101 2 103 68 100 49 -3 58 -7 71 -29z"/>
<path d="M10394 15593 c-17 -3 -29 -30 -68 -148 -25 -79 -52 -166 -59 -194
-13 -55 -24 -65 -31 -28 -15 77 -60 287 -68 315 l-9 33 -69 -2 c-38 -1 -73 -5
-77 -8 -7 -5 -66 -552 -60 -557 1 0 25 2 52 5 40 5 50 10 52 26 1 11 6 92 13
180 13 189 20 249 27 242 3 -3 15 -59 28 -124 12 -65 31 -158 41 -206 l19 -88
44 3 45 3 57 175 c32 96 63 194 69 218 5 23 14 42 19 42 5 0 6 -98 3 -217 l-5
-218 56 3 56 4 -4 251 c-2 139 -4 262 -4 275 -1 20 -6 22 -53 21 -29 -1 -62
-4 -74 -6z"/>
<path d="M9593 15533 c-7 -2 -29 -57 -49 -121 -20 -64 -58 -186 -85 -270 -27
-84 -49 -160 -49 -169 0 -12 7 -14 31 -9 17 3 41 6 54 6 19 0 25 11 43 74 25
83 28 86 125 86 37 0 59 -4 62 -12 2 -7 11 -39 20 -71 l16 -58 57 7 c31 3 58
7 59 8 1 1 -29 121 -67 266 -39 146 -70 266 -70 267 0 5 -135 2 -147 -4z m89
-200 c15 -59 25 -110 22 -112 -8 -8 -124 -14 -124 -6 0 4 14 50 30 102 17 51
30 100 30 108 0 8 4 15 8 15 4 0 20 -48 34 -107z"/>
<path d="M9065 15496 l-80 -11 -6 -45 c-3 -25 -9 -150 -13 -278 l-7 -233 58 3
58 3 3 111 3 112 32 6 c23 5 39 1 57 -12 24 -18 29 -33 62 -164 8 -36 10 -38
51 -38 67 0 70 5 51 96 -18 89 -37 131 -66 155 -20 16 -20 16 11 38 87 62 94
196 12 244 -37 21 -131 27 -226 13z m152 -98 c60 -56 4 -148 -92 -148 l-35 0
0 79 c0 87 1 89 64 90 28 1 47 -6 63 -21z"/>
<path d="M8650 15467 c-158 -35 -254 -157 -254 -322 0 -80 15 -133 51 -176 66
-78 204 -95 364 -43 l47 15 4 147 c3 81 4 148 3 149 -1 2 -45 0 -98 -4 l-97
-6 0 -50 0 -50 40 6 40 5 0 -64 c0 -75 -5 -79 -87 -79 -150 0 -207 204 -89
321 50 51 131 73 208 57 l46 -9 13 43 c7 26 8 48 3 52 -16 16 -138 20 -194 8z"/>
<path d="M8064 15423 l-51 -4 -15 -52 c-8 -29 -47 -157 -87 -284 -39 -128 -71
-235 -71 -238 0 -3 25 -5 55 -5 62 0 61 -1 89 102 l16 56 74 7 c41 4 79 4 84
1 6 -3 13 -21 17 -39 4 -17 11 -47 16 -64 10 -33 11 -33 75 -33 35 0 64 1 64
3 0 1 -36 126 -79 277 l-78 275 -29 1 c-16 0 -52 -1 -80 -3z m51 -191 c12 -48
25 -97 29 -108 6 -20 2 -22 -54 -29 -34 -4 -63 -5 -66 -2 -3 3 9 57 27 121 18
63 35 113 38 110 3 -2 15 -44 26 -92z"/>
<path d="M7550 15384 c-85 -7 -156 -13 -157 -13 -2 -1 -3 -24 -3 -51 l0 -51
77 7 76 7 -6 -238 -6 -237 37 6 c20 3 46 6 58 6 21 0 21 5 28 233 4 127 9 233
10 234 1 1 35 6 74 9 l72 7 0 48 0 49 -52 -2 c-29 0 -123 -7 -208 -14z"/>
<path d="M7130 15357 c-70 -20 -116 -53 -139 -101 -50 -101 -8 -186 113 -226
83 -27 106 -45 106 -79 0 -59 -86 -91 -179 -67 l-49 13 -11 -43 c-6 -24 -11
-47 -11 -52 0 -15 79 -31 134 -28 144 9 236 85 236 196 0 79 -40 120 -155 160
-32 11 -64 25 -71 31 -23 19 -17 67 9 84 26 17 108 24 149 12 25 -7 28 -4 40
40 12 42 12 49 -1 54 -37 14 -129 17 -171 6z"/>
<path d="M6807 15333 l-49 -4 4 -205 c1 -112 2 -204 0 -204 -1 0 -14 26 -28
58 -13 31 -59 119 -101 195 l-76 137 -74 0 -73 0 0 -78 c0 -44 -3 -174 -7
-291 l-6 -212 54 3 54 3 3 213 c1 116 6 212 11 212 5 0 18 -24 30 -52 12 -29
59 -120 105 -203 l83 -150 59 3 c32 2 60 5 62 7 8 8 14 575 6 573 -5 -1 -31
-3 -57 -5z"/>
<path d="M6218 15293 l-47 -4 -3 -290 -3 -289 25 0 c14 0 41 3 61 6 l35 6 3
289 c2 236 0 289 -11 287 -7 -1 -34 -3 -60 -5z"/>
<path d="M5803 15263 l-43 -4 0 -110 c0 -79 -3 -111 -12 -113 -7 -3 -57 -7
-110 -10 l-98 -5 0 112 0 112 -60 -3 -59 -4 -3 -86 c-2 -48 -2 -179 0 -292 l3
-205 59 3 60 4 0 129 0 129 58 0 c31 0 81 3 110 6 l52 7 0 -127 0 -126 38 0
c20 0 47 3 60 6 l22 6 0 289 c0 269 -1 289 -17 287 -10 -1 -37 -3 -60 -5z"/>
<path d="M5082 15215 c-130 -29 -211 -93 -251 -199 -50 -133 -9 -288 90 -349
84 -51 202 -55 342 -10 l47 15 0 154 0 155 -92 -6 c-51 -4 -99 -8 -105 -10 -8
-3 -13 -22 -13 -50 l0 -45 45 0 45 0 0 -64 c0 -41 -5 -68 -12 -73 -7 -4 -39
-7 -70 -6 -115 2 -175 76 -166 204 6 85 33 127 102 165 44 24 56 26 135 22
l88 -4 10 48 c9 45 8 49 -11 53 -62 12 -128 12 -184 0z"/>
<path d="M4602 15183 l-23 -4 2 -202 c1 -120 -3 -213 -9 -228 -15 -38 -59 -69
-99 -69 -89 0 -103 40 -103 296 l0 195 -62 -7 c-35 -4 -63 -7 -63 -8 0 0 2
-98 5 -216 5 -213 5 -216 33 -266 34 -60 70 -84 141 -91 79 -8 147 12 200 59
68 59 78 100 83 346 l5 202 -43 -1 c-24 -1 -54 -4 -67 -6z"/>
<path d="M3792 15121 c-67 -23 -133 -86 -163 -155 -33 -73 -32 -209 1 -284 44
-100 132 -149 253 -140 164 13 267 135 267 313 0 99 -27 170 -84 223 -69 64
-169 79 -274 43z m158 -100 c91 -62 95 -269 7 -349 -48 -45 -126 -45 -173 -1
-47 44 -68 164 -43 252 14 52 66 107 109 117 41 9 66 5 100 -19z"/>
<path d="M3190 15093 c-19 -2 -45 -6 -58 -8 l-23 -6 1 -294 2 -295 26 0 c15 0
44 3 65 7 l39 6 -3 116 -4 116 34 3 c75 7 88 -8 128 -153 l19 -70 59 3 c32 1
60 4 62 5 1 2 -11 50 -28 107 -23 79 -38 113 -61 137 -18 18 -30 34 -27 36 2
2 16 10 30 19 56 35 79 141 44 207 -31 62 -129 82 -305 64z m178 -99 c20 -13
23 -22 20 -67 -3 -46 -7 -54 -37 -74 -22 -15 -49 -23 -77 -23 l-44 0 0 89 0
90 33 4 c42 5 77 -1 105 -19z"/>
<path d="M2886 15073 l-39 -4 7 -114 7 -113 -68 -6 c-37 -4 -89 -8 -114 -11
l-46 -4 -7 67 c-3 37 -6 90 -6 118 l0 51 -57 -5 c-32 -2 -59 -5 -60 -6 -1 -1
1 -135 4 -299 l6 -297 41 0 c85 0 81 -5 77 141 l-3 129 33 0 c19 0 71 3 116 7
l82 6 3 -128 3 -129 60 3 c33 1 61 3 61 4 1 1 -1 136 -4 300 l-5 297 -26 -2
c-14 -1 -43 -3 -65 -5z"/>
<path d="M2138 15027 l-168 -10 0 -53 0 -53 78 6 79 6 6 -153 c4 -84 7 -196 7
-249 l0 -96 63 3 63 4 -4 249 -4 249 43 0 c24 0 61 3 82 6 37 7 37 7 37 55 l0
49 -57 -2 c-32 -1 -133 -6 -225 -11z"/>
<path d="M9165 13280 c-132 -15 -269 -32 -305 -36 -36 -4 -58 -9 -50 -11 22
-5 14 -90 -8 -96 -35 -10 99 -5 223 7 72 7 135 11 140 9 6 -2 24 -25 42 -51
18 -26 77 -110 133 -186 56 -76 97 -142 93 -147 -4 -4 -78 -15 -163 -24 -204
-21 -409 -45 -437 -51 -20 -4 -23 -11 -23 -54 0 -45 2 -50 23 -50 34 0 489 39
586 50 47 5 101 10 120 10 l33 0 -6 -97 c-4 -54 -13 -280 -21 -503 -17 -466
-43 -1130 -54 -1402 -7 -182 -8 -188 -35 -227 -15 -22 -42 -46 -59 -54 -18 -8
-186 -37 -374 -63 -189 -27 -333 -51 -320 -55 18 -4 22 -12 22 -47 0 -23 3
-42 8 -42 14 0 351 40 504 59 86 11 165 27 185 36 63 33 116 85 144 141 32 66
34 90 64 884 11 300 30 768 40 1040 11 272 21 569 23 660 2 160 1 167 -24 215
-17 35 -39 58 -72 79 -65 40 -135 41 -432 6z m376 -129 l40 -39 -3 -136 c-2
-81 -7 -137 -13 -138 -13 -2 -246 313 -242 327 2 6 28 13 58 16 115 12 119 12
160 -30z"/>
<path d="M8703 10205 c0 -8 4 -15 9 -15 4 0 8 4 8 9 0 6 -4 12 -8 15 -5 3 -9
-1 -9 -9z"/>
<path d="M9555 9690 c-222 -44 -381 -188 -416 -375 -26 -144 28 -255 156 -318
28 -14 93 -37 145 -52 146 -41 180 -68 180 -143 0 -53 -34 -100 -94 -131 -63
-33 -207 -41 -306 -18 -36 9 -68 13 -71 9 -5 -6 -59 -212 -59 -226 0 -13 119
-30 208 -29 355 4 604 210 590 489 -3 65 -10 90 -31 126 -49 84 -105 118 -279
168 -152 44 -187 73 -175 147 17 103 191 162 356 119 38 -10 54 -10 56 -2 38
118 63 212 57 218 -24 24 -228 36 -317 18z"/>
<path d="M8401 9511 c-63 -9 -116 -21 -117 -26 -1 -6 -7 -219 -13 -475 -6
-256 -14 -529 -17 -607 l-6 -143 23 0 c27 0 677 98 697 105 9 3 12 36 12 118
l0 114 -227 -33 c-124 -19 -228 -32 -230 -30 -4 4 11 555 23 844 6 144 5 152
-12 151 -11 -1 -70 -9 -133 -18z"/>
<path d="M7669 9412 l-326 -46 -6 -211 c-4 -115 -10 -396 -13 -622 l-7 -413
24 0 c13 1 182 24 374 53 l350 53 3 117 3 117 -28 -5 c-70 -13 -424 -65 -438
-65 -15 0 -16 16 -13 139 2 77 6 142 9 145 3 3 100 20 214 36 115 17 210 32
211 33 7 8 14 216 7 220 -4 2 -98 -8 -208 -24 -110 -15 -206 -28 -214 -29 -11
0 -13 24 -9 125 2 68 6 127 10 130 3 3 107 20 232 37 l226 31 0 61 c0 34 3 85
6 114 l7 52 -44 -1 c-24 -1 -191 -22 -370 -47z"/>
<path d="M6805 9295 c-170 -23 -335 -46 -366 -49 l-56 -7 -7 -102 c-3 -56 -6
-338 -6 -627 -1 -424 2 -526 12 -528 13 -2 678 92 726 103 21 5 22 9 22 120 0
63 -1 115 -3 115 -1 0 -107 -16 -236 -35 -128 -19 -237 -35 -242 -35 -5 0 -9
63 -9 145 0 142 0 145 23 150 12 2 108 16 212 31 135 19 194 31 203 42 8 10
12 50 12 114 l0 98 -27 0 c-16 0 -104 -11 -198 -25 -242 -35 -215 -49 -215
104 l0 129 73 10 c39 6 145 21 235 33 l162 22 0 118 c0 66 -1 118 -2 118 -2
-1 -142 -21 -313 -44z"/>
<path d="M5690 9154 c-14 -2 -67 -11 -118 -20 -51 -8 -134 -24 -183 -35 l-89
-21 0 -629 0 -629 23 5 c21 4 232 35 242 35 3 0 5 112 5 249 l0 249 28 6 c49
11 131 9 162 -4 44 -18 65 -61 100 -200 16 -69 40 -153 51 -187 18 -55 23 -62
42 -58 28 6 234 35 248 35 7 0 8 7 4 18 -3 9 -29 99 -55 199 -27 100 -59 202
-71 227 -20 43 -61 86 -105 112 -17 10 -17 12 12 27 45 23 123 113 153 177 23
48 26 68 26 155 0 83 -4 107 -22 140 -30 57 -70 94 -133 124 -48 22 -70 25
-175 27 -66 1 -131 0 -145 -2z m148 -234 c62 -38 80 -136 41 -218 -35 -71
-113 -111 -247 -127 l-62 -7 2 173 3 174 45 12 c76 19 180 16 218 -7z"/>
<path d="M12063 8253 c-158 -24 -306 -98 -411 -203 -196 -198 -269 -544 -160
-758 56 -111 153 -170 294 -179 118 -8 262 22 377 78 38 18 47 28 47 48 0 30
-18 142 -23 147 -2 3 -26 -6 -53 -17 -118 -53 -254 -65 -323 -30 -137 70 -173
281 -81 476 77 163 220 247 416 246 l91 -1 27 91 c15 50 24 95 19 100 -14 14
-135 15 -220 2z"/>
<path d="M11168 8083 c-102 -18 -94 -1 -102 -198 -3 -66 -15 -299 -27 -518
-12 -219 -19 -401 -16 -404 6 -5 186 24 213 34 7 3 14 49 18 121 28 510 46
830 52 900 l6 82 -29 -1 c-15 -1 -67 -8 -115 -16z"/>
<path d="M10650 7994 c-102 -18 -235 -41 -297 -50 l-111 -17 -6 -111 c-3 -61
-13 -266 -21 -456 -8 -190 -18 -393 -21 -451 l-6 -105 115 19 115 20 6 76 c3
42 9 143 12 224 8 174 -9 156 169 187 66 11 143 25 172 31 l52 10 3 95 c2 52
-1 94 -5 94 -5 0 -89 -14 -188 -31 -99 -17 -182 -30 -184 -28 -2 2 0 63 3 134
l7 130 205 37 c113 20 206 37 208 37 1 1 2 44 2 96 0 92 -1 95 -22 94 -13 0
-106 -16 -208 -35z"/>
<path d="M9750 7845 c-135 -23 -272 -45 -305 -51 l-60 -9 -7 -205 c-5 -113
-14 -367 -22 -565 -8 -198 -13 -361 -13 -361 2 -2 231 37 234 39 1 1 5 103 9
225 4 128 11 225 17 229 5 3 90 21 189 39 98 18 183 36 188 39 6 4 10 48 10
99 l0 92 -187 -33 c-103 -18 -189 -30 -192 -27 -6 6 -1 257 5 263 2 2 95 19
206 38 112 19 204 36 205 36 1 1 5 46 9 100 l7 97 -24 -1 c-13 -1 -134 -21
-269 -44z"/>
<path d="M8705 7678 c-71 -12 -131 -22 -133 -23 -2 -2 -43 -135 -92 -296 -48
-162 -93 -305 -98 -319 -18 -47 -174 -582 -170 -585 3 -3 230 35 236 40 1 1
21 71 45 156 l42 154 160 27 c88 15 162 24 166 20 3 -4 20 -63 38 -132 18 -69
36 -129 40 -133 4 -4 62 2 128 14 l120 22 -7 31 c-4 17 -29 108 -55 201 -86
311 -135 489 -166 605 -63 235 -63 235 -95 237 -16 1 -87 -8 -159 -19z m36
-276 c9 -42 33 -140 53 -216 21 -76 34 -142 29 -146 -10 -8 -233 -44 -239 -38
-2 3 9 52 25 109 16 57 43 160 61 229 46 185 45 184 71 62z"/>
<path d="M7620 7510 c-122 -23 -273 -60 -283 -69 -8 -8 -32 -1129 -24 -1137 4
-4 227 32 233 38 1 2 6 106 10 230 8 255 0 235 94 245 63 6 109 -11 134 -50 8
-12 33 -96 56 -187 22 -90 44 -168 49 -173 4 -4 50 -1 102 8 159 26 149 23
138 52 -5 14 -27 97 -49 185 -42 174 -72 238 -126 270 -31 18 -45 38 -26 38 4
0 33 23 65 50 82 74 122 159 122 260 0 132 -55 212 -170 247 -57 18 -213 14
-325 -7z m201 -193 c76 -51 75 -172 -3 -246 -43 -42 -137 -78 -213 -83 l-39
-3 3 160 c2 88 5 162 7 164 9 10 114 29 160 30 37 1 60 -5 85 -22z"/>
<path d="M6935 7398 c-99 -16 -277 -44 -395 -61 l-215 -32 -9 -103 c-5 -56 -7
-105 -4 -108 3 -2 62 5 131 16 70 11 139 20 153 20 l27 0 -6 -473 -6 -473 124
20 125 20 1 296 c1 162 4 376 8 475 l6 180 146 24 147 23 6 46 c3 24 6 71 6
103 l0 59 -32 -1 c-18 0 -114 -14 -213 -31z"/>
<path d="M5490 7179 c-179 -27 -331 -52 -338 -54 -11 -4 -13 -115 -10 -584 2
-319 6 -582 9 -585 3 -3 145 16 315 43 170 28 330 53 357 57 l47 6 0 104 c0
57 -2 104 -4 104 -2 0 -105 -16 -229 -35 -124 -19 -230 -35 -236 -35 -16 0
-15 276 1 286 7 4 102 22 213 38 l200 31 3 103 c2 59 -1 102 -7 102 -5 0 -98
-14 -206 -31 -108 -17 -198 -29 -200 -27 -6 8 -13 235 -7 245 4 6 106 26 227
45 l220 33 3 103 c2 93 1 102 -15 101 -10 0 -164 -23 -343 -50z"/>
<path d="M4835 7085 c-349 -56 -544 -85 -570 -85 -16 0 -35 -4 -41 -8 -8 -5
-9 -179 -6 -594 4 -561 5 -588 23 -588 15 0 569 85 687 105 l32 6 0 105 c0
103 0 104 -22 99 -79 -17 -441 -66 -453 -61 -12 4 -15 30 -15 145 0 136 0 139
23 144 12 3 109 18 215 33 l192 28 0 103 c0 57 -4 103 -8 103 -5 0 -97 -13
-205 -30 -108 -16 -201 -30 -207 -30 -14 0 -13 247 1 256 14 8 373 64 417 64
l32 0 0 110 c0 61 -3 109 -7 109 -5 -1 -44 -7 -88 -14z"/>
<path d="M3450 6890 c-58 -11 -144 -29 -192 -41 l-88 -21 0 -117 c1 -212 19
-1053 23 -1058 3 -2 62 4 131 14 l127 17 -7 237 -7 236 24 6 c74 17 135 17
169 0 48 -25 66 -61 114 -231 53 -183 59 -195 94 -188 26 5 218 36 225 36 5 0
-102 360 -117 395 -20 45 -64 93 -104 114 l-35 18 35 21 c124 77 195 231 168
366 -18 91 -55 142 -135 184 -46 24 -61 27 -185 29 -99 1 -163 -3 -240 -17z
m251 -203 c43 -29 59 -60 59 -121 0 -117 -88 -186 -269 -211 l-49 -7 -7 144
c-10 192 -10 190 45 205 25 6 77 12 116 12 58 1 77 -3 105 -22z"/>
<path d="M2845 6799 c-27 -5 -165 -24 -305 -44 -140 -19 -269 -37 -285 -40
l-31 -5 4 -103 c2 -56 9 -323 15 -594 7 -270 15 -494 18 -497 3 -3 62 2 130
12 l124 18 -4 240 -3 241 23 6 c13 3 111 18 217 33 l192 28 0 108 0 108 -27
-5 c-82 -15 -367 -55 -388 -55 l-25 0 0 140 c0 137 0 140 23 144 12 3 108 17
212 31 105 14 198 28 208 31 19 6 22 45 11 153 -8 69 -6 68 -109 50z"/>
<path d="M11220 6375 c-140 -29 -310 -63 -377 -75 l-121 -22 -4 -97 c-2 -53
-3 -97 -2 -99 1 -2 62 8 135 22 73 14 136 23 140 18 4 -4 -4 -203 -17 -442
-12 -239 -22 -436 -20 -437 4 -4 206 43 212 50 7 7 10 46 39 577 9 162 20 299
25 303 4 5 67 21 139 36 72 16 133 30 135 32 2 2 6 46 8 97 4 88 3 92 -16 91
-12 0 -136 -25 -276 -54z"/>
<path d="M10474 6228 l-91 -20 -7 -126 c-4 -70 -10 -246 -12 -391 -2 -146 -6
-266 -8 -268 -1 -2 -15 30 -31 69 -66 171 -318 638 -344 638 -27 0 -246 -42
-253 -49 -6 -6 -53 -1100 -46 -1106 1 -1 47 7 101 18 81 18 99 25 102 42 6 31
25 566 25 693 0 61 3 112 8 112 4 0 24 -42 46 -93 54 -128 316 -630 335 -642
4 -2 59 8 122 22 l116 26 6 146 c12 256 36 763 42 859 4 71 2 92 -7 91 -7 0
-54 -10 -104 -21z"/>
<path d="M9376 6019 c-54 -10 -101 -20 -103 -23 -2 -2 -10 -188 -18 -412 -8
-225 -17 -476 -21 -558 -6 -142 -6 -148 12 -143 11 3 60 13 109 23 50 9 94 21
99 25 5 5 18 217 27 471 22 576 23 638 7 637 -7 -1 -58 -9 -112 -20z"/>
<path d="M8705 5899 c-66 -6 -361 -74 -383 -88 -6 -4 -14 -190 -21 -481 -6
-261 -14 -512 -17 -556 l-6 -82 112 23 c61 12 113 25 117 28 3 3 7 86 10 184
2 98 6 197 9 219 5 41 5 42 57 52 126 25 171 -12 202 -163 9 -44 25 -115 37
-157 19 -69 23 -77 42 -73 76 17 207 45 212 45 3 0 3 8 -1 17 -3 10 -23 91
-44 180 -44 186 -73 246 -129 270 l-37 16 30 21 c141 99 207 265 161 404 -39
117 -151 162 -351 141z m64 -192 c92 -32 92 -184 0 -261 -42 -36 -81 -53 -165
-70 -57 -12 -66 -12 -71 1 -8 19 6 296 15 305 12 12 114 37 152 37 19 0 50 -5
69 -12z"/>
<path d="M7695 5723 c-148 -33 -312 -77 -322 -86 -8 -9 -13 -164 -19 -564 l-7
-553 21 0 c18 0 118 19 190 35 22 5 22 7 22 188 0 100 3 191 6 203 4 16 19 22
77 32 151 26 273 87 355 176 61 68 88 121 108 217 35 169 -34 310 -171 348
-38 10 -219 13 -260 4z m167 -220 c24 -24 32 -42 36 -82 11 -122 -73 -219
-216 -250 -99 -21 -92 -32 -92 142 0 83 3 162 6 174 8 31 81 53 167 50 61 -2
70 -6 99 -34z"/>
<path d="M7015 5595 c-71 -13 -219 -39 -328 -58 -109 -19 -201 -37 -204 -41
-4 -4 -9 -263 -11 -576 -4 -553 -4 -569 14 -564 11 2 165 31 343 64 179 33
326 61 327 63 5 5 8 187 2 192 -4 5 -355 -54 -425 -72 -23 -5 -23 -5 -23 118
0 68 3 133 6 145 5 19 25 25 192 54 103 18 193 35 200 37 13 6 18 203 5 203
-9 0 -336 -58 -370 -65 -23 -5 -23 -5 -23 119 l0 124 113 21 c61 11 158 28
215 37 l102 17 0 42 c0 23 3 70 6 104 4 34 3 61 -2 60 -5 -1 -67 -12 -139 -24z"/>
<path d="M6110 5441 l-95 -16 -6 -90 c-3 -50 -6 -220 -8 -380 -2 -308 -7 -352
-48 -427 -42 -78 -109 -118 -197 -118 -69 0 -113 28 -146 95 l-25 50 -3 398
c-2 218 -6 397 -10 397 -4 0 -59 -9 -122 -20 -63 -11 -117 -20 -118 -20 -2 0
-2 -179 1 -397 4 -412 6 -431 50 -535 24 -56 91 -123 150 -148 70 -30 154 -36
256 -16 236 44 391 198 435 431 10 57 16 185 21 448 l5 367 -22 -1 c-13 -1
-66 -9 -118 -18z"/>
<path d="M4605 5194 c-44 -7 -95 -16 -114 -19 l-34 -7 6 -575 c4 -317 8 -578
10 -580 3 -2 160 22 351 54 l346 57 0 103 c0 57 -3 103 -7 103 -5 0 -104 -16
-221 -36 -117 -20 -216 -33 -220 -30 -3 4 -8 218 -10 476 -3 340 -8 470 -16
469 -6 -1 -47 -7 -91 -15z"/>
<path d="M3790 5073 c-76 -11 -370 -79 -375 -85 -1 -2 1 -178 6 -393 4 -214 8
-473 8 -574 l1 -183 78 6 c288 22 540 99 646 196 184 170 156 453 -52 505 -25
7 -47 16 -49 21 -1 5 23 26 53 48 100 69 149 181 124 287 -17 71 -81 137 -159
162 -50 16 -207 22 -281 10z m138 -203 c40 -25 55 -61 49 -119 -9 -84 -110
-151 -249 -167 l-59 -7 3 144 3 144 55 11 c89 19 160 17 198 -6z m-14 -461
c80 -22 121 -99 97 -180 -15 -49 -62 -104 -111 -129 -33 -17 -168 -50 -205
-50 -13 0 -15 24 -15 174 l0 173 63 10 c87 14 126 15 171 2z"/>
</g>
</svg>
