<svg version="1.0" xmlns="http://www.w3.org/2000/svg"
 width="512.000000pt" height="512.000000pt" viewBox="0 0 512.000000 512.000000"
 preserveAspectRatio="xMidYMid meet">

<g transform="translate(0.000000,512.000000) scale(0.100000,-0.100000)"
fill="#000000" stroke="none">
<path d="M2524 4878 c-25 -11 -194 -349 -194 -386 0 -35 16 -59 49 -70 48 -17
71 3 126 110 l50 97 164 -397 c90 -218 173 -407 184 -419 23 -26 72 -30 102
-9 11 7 126 83 256 169 l237 155 86 -251 c48 -139 95 -261 106 -271 12 -12 31
-19 52 -18 18 1 159 31 313 66 154 36 282 63 284 60 3 -2 -14 -111 -37 -242
-23 -130 -42 -252 -42 -270 0 -38 -8 -32 373 -292 141 -96 256 -178 254 -183
-1 -4 -119 -72 -261 -150 -144 -79 -267 -153 -277 -167 -18 -24 -18 -33 2
-333 12 -170 19 -310 17 -313 -3 -2 -156 19 -341 47 -185 29 -347 49 -361 45
-14 -3 -32 -19 -40 -34 -13 -25 -12 -62 8 -322 21 -280 23 -294 45 -311 28
-23 69 -24 99 -3 27 19 28 65 7 329 -7 99 -13 180 -12 181 1 1 155 -22 342
-52 187 -29 350 -50 363 -47 13 3 30 16 39 29 14 22 13 54 -7 360 -13 191 -19
339 -14 344 5 4 141 81 303 169 162 89 300 169 307 179 19 24 17 69 -4 90 -9
9 -165 118 -346 242 -181 124 -331 231 -333 237 -3 7 18 141 46 297 55 310 55
323 2 346 -22 9 -80 -2 -351 -64 -179 -41 -328 -72 -331 -68 -4 4 -46 122 -94
262 -90 264 -109 300 -158 300 -12 0 -139 -77 -281 -170 -143 -94 -263 -167
-267 -163 -4 5 -80 184 -169 398 -89 215 -171 411 -182 436 -26 61 -66 81
-114 57z"/>
<path d="M900 4810 c-30 -30 -27 -83 6 -109 35 -27 59 -26 89 4 48 47 20 125
-45 125 -17 0 -39 -9 -50 -20z"/>
<path d="M3522 4760 c-67 -28 -40 -140 34 -140 61 0 95 84 51 127 -18 17 -59
24 -85 13z"/>
<path d="M1909 4591 c-50 -40 -17 -131 48 -131 32 0 73 42 73 75 0 33 -41 75
-73 75 -14 0 -35 -8 -48 -19z"/>
<path d="M1576 4298 c-14 -13 -75 -126 -135 -253 -61 -126 -115 -229 -120
-228 -5 1 -120 65 -257 143 -136 77 -256 140 -265 140 -10 0 -30 -11 -45 -24
l-28 -23 -19 -324 c-10 -178 -22 -327 -25 -330 -4 -4 -149 -41 -322 -84 -267
-65 -318 -80 -337 -101 -46 -51 -42 -57 242 -345 l265 -268 -19 -43 c-10 -24
-82 -182 -160 -352 -78 -170 -144 -319 -147 -332 -9 -34 4 -63 35 -79 25 -12
70 -10 392 15 200 17 376 30 391 30 27 0 37 -18 218 -380 208 -417 210 -419
275 -387 25 13 185 137 591 458 l61 48 196 -178 c108 -98 205 -181 215 -183
34 -9 69 15 251 174 l180 158 123 -218 c68 -119 234 -413 369 -652 197 -349
251 -437 271 -444 37 -13 86 9 95 43 10 42 -28 552 -44 583 -24 50 -102 50
-126 0 -11 -20 -12 -49 -7 -117 3 -49 6 -91 5 -93 -1 -1 -136 235 -300 525
-164 291 -307 536 -318 546 -10 9 -33 17 -51 17 -26 -1 -64 -30 -230 -175
l-199 -174 -150 137 c-226 207 -245 222 -277 222 -32 0 -18 10 -375 -271 -143
-113 -265 -208 -272 -212 -9 -6 -66 100 -192 351 -127 253 -186 361 -203 370
-19 10 -89 7 -373 -16 -192 -16 -351 -27 -353 -26 -2 1 65 151 148 333 113
246 150 337 145 354 -4 12 -111 127 -238 254 -127 128 -229 235 -226 237 2 3
130 36 283 75 204 50 284 75 299 90 19 19 22 44 38 307 10 157 20 288 22 291
3 2 109 -54 235 -126 127 -72 241 -131 255 -131 14 0 34 8 45 18 11 9 69 118
127 242 59 124 110 228 114 232 3 3 104 -63 225 -148 120 -85 225 -154 233
-154 45 0 70 30 131 158 69 146 75 180 36 211 -55 43 -89 22 -145 -90 l-44
-89 -165 117 c-298 210 -299 211 -344 171z"/>
<path d="M300 3750 c-30 -30 -27 -83 6 -109 15 -12 34 -21 44 -21 10 0 29 9
44 21 52 41 23 129 -44 129 -17 0 -39 -9 -50 -20z"/>
<path d="M4795 3440 c-11 -12 -19 -36 -19 -56 0 -90 123 -98 140 -9 13 68 -76
115 -121 65z"/>
<path d="M2882 3119 c-173 -22 -319 -178 -330 -354 -11 -169 74 -308 234 -382
49 -23 73 -27 144 -28 76 0 92 3 152 33 36 18 81 49 99 69 47 54 90 153 96
222 12 126 -12 143 -185 134 -120 -6 -134 -13 -147 -65 -6 -22 -1 -33 23 -58
27 -27 37 -30 92 -30 59 0 61 -1 55 -22 -12 -39 -53 -93 -87 -113 -45 -27
-139 -26 -193 2 -85 45 -129 117 -130 214 0 56 4 73 30 115 19 30 49 60 80 79
43 26 57 30 124 30 61 0 83 -4 112 -22 46 -29 71 -29 105 0 32 28 37 76 10
106 -45 49 -181 83 -284 70z"/>
<path d="M3650 3115 c-112 -32 -202 -108 -254 -215 -28 -59 -31 -74 -31 -160
0 -82 4 -103 27 -152 116 -249 436 -309 628 -118 158 159 150 411 -19 561 -94
84 -232 117 -351 84z m156 -148 c68 -18 118 -58 149 -120 60 -121 13 -256
-110 -313 -205 -96 -412 123 -303 319 30 53 86 97 145 113 62 16 60 16 119 1z"/>
<path d="M1033 3110 c-12 -5 -26 -18 -32 -29 -7 -13 -11 -138 -11 -360 l0
-340 26 -20 c24 -19 40 -21 154 -21 188 0 259 28 317 128 24 39 28 58 28 117
-1 75 -16 118 -61 166 -23 25 -24 27 -9 62 47 114 -21 257 -139 292 -55 16
-237 20 -273 5z m261 -172 c22 -31 20 -58 -6 -85 -18 -19 -32 -23 -85 -23
l-63 0 0 65 0 65 69 0 c61 0 72 -3 85 -22z m33 -278 c49 -32 52 -98 6 -142
-21 -20 -37 -24 -109 -27 l-84 -3 0 97 0 98 83 -5 c46 -2 92 -11 104 -18z"/>
<path d="M1635 3095 l-25 -24 0 -330 c0 -224 4 -338 11 -355 23 -51 103 -55
128 -7 7 13 11 138 11 356 l0 336 -25 24 c-13 14 -36 25 -50 25 -14 0 -37 -11
-50 -25z"/>
<path d="M1923 3110 c-12 -5 -26 -18 -32 -29 -7 -13 -11 -135 -11 -349 0 -318
1 -330 21 -356 25 -32 75 -35 110 -7 23 19 24 24 29 218 l5 200 140 -203 c149
-216 177 -244 228 -225 56 22 57 26 57 388 0 329 0 332 -22 353 -30 27 -79 26
-106 -3 -20 -22 -22 -34 -24 -227 l-3 -205 -140 200 c-183 262 -191 270 -252
245z"/>
<path d="M760 1460 c-30 -30 -27 -83 6 -109 15 -12 34 -21 44 -21 10 0 29 9
44 21 52 41 23 129 -44 129 -17 0 -39 -9 -50 -20z"/>
<path d="M2905 1130 c-27 -30 -25 -88 4 -111 45 -37 105 -13 117 46 13 68 -76
115 -121 65z"/>
<path d="M2050 770 c-30 -30 -27 -83 6 -109 15 -12 34 -21 44 -21 10 0 29 9
44 21 52 41 23 129 -44 129 -17 0 -39 -9 -50 -20z"/>
</g>
</svg>
