<svg version="1.0" xmlns="http://www.w3.org/2000/svg"
 width="300.000000pt" height="137.000000pt" viewBox="0 0 300.000000 137.000000"
 preserveAspectRatio="xMidYMid meet">

<g transform="translate(0.000000,137.000000) scale(0.100000,-0.100000)"
fill="#000000" stroke="none">
<path d="M2374 1228 c-31 -49 -43 -83 -33 -93 7 -7 16 -3 29 12 18 22 18 22
55 -68 21 -49 41 -92 46 -94 4 -3 34 12 66 34 l58 39 12 -26 c6 -15 17 -42 23
-59 14 -37 21 -38 103 -19 l59 14 -6 -37 c-4 -20 -9 -48 -12 -62 -4 -23 3 -31
66 -72 38 -26 70 -50 70 -55 0 -4 -26 -21 -58 -38 l-57 -31 2 -77 c1 -66 -1
-77 -13 -72 -29 11 -151 19 -156 10 -2 -5 -2 -38 1 -74 5 -53 9 -65 25 -68 17
-4 19 1 13 57 -5 58 -4 61 16 56 68 -15 141 -24 146 -19 3 3 6 42 6 87 l0 81
65 37 c35 21 66 42 68 47 2 6 -34 36 -78 67 -68 48 -81 61 -76 79 3 11 9 45
12 74 8 60 8 60 -76 37 -81 -22 -85 -20 -99 28 -7 23 -19 52 -27 65 l-15 22
-59 -40 c-32 -22 -61 -40 -63 -40 -2 0 -21 42 -42 93 -43 104 -58 127 -71 105z"/>
<path d="M2002 1208 c5 -15 28 -18 29 -3 0 6 -7 12 -17 13 -10 3 -15 -1 -12
-10z"/>
<path d="M2602 1196 c1 -10 8 -17 13 -17 15 1 12 24 -3 29 -9 3 -13 -2 -10
-12z"/>
<path d="M2232 1158 c5 -15 28 -18 29 -3 0 6 -7 12 -17 13 -10 3 -15 -1 -12
-10z"/>
<path d="M2134 1048 c-15 -29 -28 -54 -29 -56 -2 -2 -25 11 -53 27 -80 50 -88
43 -94 -79 l-3 -45 -69 -17 c-38 -10 -74 -22 -80 -28 -7 -7 10 -30 53 -74 l64
-64 -37 -77 c-52 -112 -54 -109 59 -101 l94 7 46 -90 c25 -50 48 -91 52 -91 3
0 41 27 82 59 l77 59 44 -39 c25 -21 49 -39 54 -39 5 0 28 16 52 35 l43 35 39
-67 c22 -38 60 -104 84 -148 25 -44 52 -80 59 -80 8 0 14 6 13 13 -1 6 -2 39
-2 72 -2 54 -4 60 -23 60 -16 0 -20 -5 -16 -20 3 -11 1 -20 -4 -20 -5 0 -9 4
-9 9 0 13 -120 220 -132 227 -5 3 -24 -7 -41 -23 -62 -56 -59 -56 -108 -13
-24 22 -48 40 -52 40 -4 0 -40 -25 -78 -56 -39 -31 -72 -54 -74 -52 -1 1 -21
40 -44 85 l-41 82 -57 -5 c-32 -3 -68 -6 -80 -8 -13 -2 -23 0 -23 3 0 3 14 39
32 79 l32 72 -54 55 c-30 30 -52 56 -49 58 2 2 31 10 64 18 66 17 71 25 74
116 l1 42 50 -29 c28 -17 57 -30 64 -30 7 0 23 24 36 53 13 28 25 54 27 56 1
2 25 -13 52 -34 28 -20 55 -34 61 -30 6 3 17 20 26 37 12 23 13 33 4 42 -8 8
-16 5 -29 -13 l-18 -23 -43 31 c-24 17 -49 31 -56 31 -8 0 -26 -24 -40 -52z"/>
<path d="M1865 971 c-7 -12 12 -24 25 -16 11 7 4 25 -10 25 -5 0 -11 -4 -15
-9z"/>
<path d="M2897 903 c-12 -11 -8 -23 8 -23 8 0 15 7 15 15 0 16 -12 20 -23 8z"/>
<path d="M150 826 c0 -21 5 -25 38 -28 l37 -3 3 -122 3 -123 29 0 30 0 0 125
0 125 40 0 c36 0 40 3 40 25 l0 25 -110 0 c-110 0 -110 0 -110 -24z"/>
<path d="M417 843 c-4 -3 -7 -71 -7 -150 l0 -143 30 0 30 0 0 60 c0 57 1 60
24 60 30 0 42 -15 56 -73 12 -45 14 -47 47 -47 28 0 33 3 29 18 -2 9 -10 36
-17 60 -7 23 -18 47 -25 53 -9 8 -7 15 12 34 42 42 27 103 -30 125 -30 11
-139 14 -149 3z m127 -59 c9 -8 16 -19 16 -24 0 -18 -33 -40 -61 -40 -26 0
-29 3 -29 33 0 19 3 37 7 40 12 13 51 7 67 -9z"/>
<path d="M710 748 c-17 -57 -38 -123 -46 -147 -8 -25 -14 -46 -14 -48 0 -2 16
-3 35 -3 32 0 35 3 45 40 10 39 12 40 55 40 43 0 43 0 50 -40 6 -38 8 -40 45
-40 l37 0 -45 150 -45 150 -43 0 -43 0 -31 -102z m100 -60 c0 -5 -14 -8 -31
-8 -24 0 -29 4 -25 18 3 9 8 31 12 47 12 51 17 51 31 0 7 -28 13 -53 13 -57z"/>
<path d="M950 700 l0 -150 30 0 30 0 0 60 0 60 55 0 c52 0 55 1 55 24 0 23 -4
25 -52 28 l-53 3 0 35 0 35 58 3 c53 3 57 5 57 27 0 25 -1 25 -90 25 l-90 0 0
-150z"/>
<path d="M1180 700 l0 -150 30 0 30 0 0 60 0 60 55 0 c52 0 55 1 55 24 0 23
-4 25 -52 28 l-53 3 0 35 0 35 58 3 c53 3 57 5 57 27 0 25 -1 25 -90 25 l-90
0 0 -150z"/>
<path d="M1410 700 l0 -150 30 0 30 0 0 150 0 150 -30 0 -30 0 0 -150z"/>
<path d="M1592 831 c-34 -16 -47 -30 -64 -67 -50 -115 24 -220 149 -211 61 4
64 6 57 34 -5 18 -13 21 -56 20 -43 -1 -54 3 -74 27 -26 29 -32 83 -13 118 14
27 71 49 107 42 25 -5 31 -2 37 16 9 29 4 32 -52 37 -34 3 -61 -2 -91 -16z"/>
<path d="M2623 825 c-89 -38 -62 -165 35 -165 45 0 78 29 88 77 5 25 1 36 -23
61 -35 38 -59 45 -100 27z m65 -41 c12 -8 22 -26 22 -39 0 -24 -33 -55 -57
-55 -18 0 -53 37 -53 55 0 18 35 55 53 55 7 0 23 -7 35 -16z"/>
<path d="M2032 743 l3 -88 37 -3 c48 -4 83 27 74 66 -4 15 -8 39 -10 54 -4 41
-24 58 -68 58 l-39 0 3 -87z m68 37 c0 -5 -9 -10 -20 -10 -11 0 -20 5 -20 10
0 6 9 10 20 10 11 0 20 -4 20 -10z m10 -70 c0 -15 -7 -20 -25 -20 -18 0 -25 5
-25 20 0 15 7 20 25 20 18 0 25 -5 25 -20z"/>
<path d="M2172 743 c2 -58 7 -88 16 -91 9 -3 12 19 12 87 0 75 -3 91 -15 91
-13 0 -15 -14 -13 -87z"/>
<path d="M2232 743 c2 -70 6 -88 18 -88 11 0 16 14 20 48 l5 47 29 -45 c44
-70 61 -59 61 40 0 67 -3 80 -17 83 -14 3 -17 -6 -20 -44 l-3 -47 -33 47 c-51
71 -63 63 -60 -41z"/>
<path d="M2409 801 c-37 -37 -37 -72 -1 -113 38 -41 85 -43 119 -4 12 15 23
38 23 52 0 21 -5 24 -34 24 -40 0 -58 -19 -27 -27 24 -6 26 -14 9 -31 -17 -17
-42 -15 -61 6 -40 44 -1 97 60 86 25 -5 33 -3 33 9 0 38 -82 37 -121 -2z"/>
<path d="M1975 450 c-4 -6 -3 -16 3 -22 6 -6 12 -6 17 2 4 6 3 16 -3 22 -6 6
-12 6 -17 -2z"/>
<path d="M2460 365 c0 -8 7 -15 15 -15 8 0 15 7 15 15 0 8 -7 15 -15 15 -8 0
-15 -7 -15 -15z"/>
<path d="M2265 290 c-3 -6 1 -13 10 -16 19 -8 30 0 20 15 -8 14 -22 14 -30 1z"/>
</g>
</svg>
