<?xml version="1.0" standalone="no"?>
<!DOCTYPE svg PUBLIC "-//W3C//DTD SVG 20010904//EN"
 "http://www.w3.org/TR/2001/REC-SVG-20010904/DTD/svg10.dtd">
<svg version="1.0" xmlns="http://www.w3.org/2000/svg"
 width="1600.000000pt" height="1873.000000pt" viewBox="0 0 1600.000000 1873.000000"
 preserveAspectRatio="xMidYMid meet">

<g transform="translate(0.000000,1873.000000) scale(0.100000,-0.100000)"
fill="#000000" stroke="none">
<path d="M11428 18563 c6 -2 18 -2 25 0 6 3 1 5 -13 5 -14 0 -19 -2 -12 -5z"/>
<path d="M11328 18553 c6 -2 18 -2 25 0 6 3 1 5 -13 5 -14 0 -19 -2 -12 -5z"/>
<path d="M11018 18523 c7 -3 16 -2 19 1 4 3 -2 6 -13 5 -11 0 -14 -3 -6 -6z"/>
<path d="M10898 18513 c7 -3 16 -2 19 1 4 3 -2 6 -13 5 -11 0 -14 -3 -6 -6z"/>
<path d="M10788 18503 c7 -3 16 -2 19 1 4 3 -2 6 -13 5 -11 0 -14 -3 -6 -6z"/>
<path d="M37 18068 c-15 -12 1 -29 136 -143 201 -173 237 -201 267 -209 23 -6
23 -6 5 5 -16 10 -147 120 -359 300 -26 23 -29 29 -17 43 11 13 11 16 -1 16
-8 0 -22 -6 -31 -12z"/>
<path d="M17 17888 c5 -166 25 -666 88 -2108 69 -1581 73 -1686 105 -2420 16
-377 32 -734 35 -795 8 -178 24 -532 35 -800 6 -137 21 -502 35 -810 35 -790
60 -1373 95 -2180 17 -385 39 -902 50 -1150 11 -247 33 -763 50 -1145 16 -382
37 -848 45 -1035 8 -187 24 -549 35 -805 54 -1266 130 -2928 140 -3055 6 -81
27 -173 114 -490 149 -539 254 -909 271 -947 l14 -33 1 50 2 50 18 -60 19 -60
-4 90 c-3 50 -12 281 -20 515 -19 520 -65 1799 -105 2885 -16 446 -46 1240
-65 1765 -36 976 -89 2414 -195 5305 -33 897 -87 2373 -120 3280 -33 908 -76
2062 -94 2565 l-34 915 -51 45 -51 45 0 90 0 90 -78 61 c-42 34 -134 112 -204
173 -69 61 -128 111 -130 111 -3 0 -3 -64 -1 -142z"/>
<path d="M914 17533 c4 -82 13 -344 21 -583 14 -403 27 -765 40 -1120 3 -80
12 -334 20 -565 8 -231 26 -737 40 -1125 14 -388 36 -1024 50 -1415 13 -390
27 -766 30 -835 2 -69 7 -195 10 -280 7 -203 23 -668 30 -845 12 -320 27 -754
60 -1685 19 -542 37 -1046 40 -1120 5 -123 17 -464 45 -1260 30 -867 48 -1347
55 -1530 3 -69 44 -1209 90 -2535 47 -1325 88 -2453 91 -2505 5 -78 8 -91 18
-77 8 10 11 41 9 84 -5 108 -42 1125 -53 1488 -6 182 -17 494 -25 695 -8 201
-22 583 -30 850 -8 267 -24 708 -35 980 -10 272 -21 585 -25 695 -6 227 -13
433 -20 615 -17 413 -43 1142 -50 1415 -3 110 -8 245 -10 300 -3 55 -10 224
-15 375 -6 151 -12 318 -15 370 -2 52 -7 181 -10 285 -12 447 -19 642 -45
1310 -14 361 -19 505 -25 725 -7 239 -23 686 -30 835 -12 253 -25 605 -30 825
-7 286 -21 670 -40 1090 -18 394 -23 549 -30 870 -5 228 -15 502 -30 780 -2
52 -7 145 -10 205 -3 61 -8 153 -10 205 -3 52 -8 196 -10 320 -3 124 -8 302
-11 395 -3 94 -7 208 -8 255 -2 47 -6 114 -9 150 -4 36 -9 135 -12 220 -10
313 -25 708 -30 825 -2 66 -8 198 -11 293 -4 102 -11 172 -17 172 -6 0 -7 -53
-3 -147z"/>
<path d="M11958 16747 c-37 -7 -70 -15 -74 -19 -7 -7 -32 -383 -33 -494 -1
-49 0 -52 28 -57 46 -9 180 9 246 34 77 29 153 103 178 175 54 155 20 292 -85
342 -54 27 -171 35 -260 19z m172 -105 c46 -22 70 -72 70 -142 0 -60 -32 -141
-68 -173 -27 -24 -88 -46 -131 -47 l-33 0 6 78 c3 42 9 125 12 184 5 87 9 108
23 111 37 10 88 6 121 -11z"/>
<path d="M11694 16723 l-31 -4 -6 -97 c-4 -53 -7 -140 -8 -192 l-1 -95 -16 40
c-9 22 -49 107 -89 188 l-73 148 -67 -7 c-38 -4 -69 -8 -71 -9 -2 -2 -31 -491
-32 -537 0 -15 9 -18 49 -18 28 0 53 4 56 10 3 5 10 93 15 196 5 102 11 188
13 191 3 2 8 -6 12 -19 4 -13 43 -99 88 -192 l81 -168 58 4 c32 2 60 7 63 10
4 4 34 458 35 531 0 29 -2 29 -76 20z"/>
<path d="M10965 16673 c-31 -4 -31 -4 -125 -288 -52 -156 -92 -286 -90 -288 3
-1 31 -1 63 1 l57 4 21 73 21 72 52 7 c95 11 103 9 110 -26 3 -18 11 -50 17
-71 l10 -39 62 7 c34 3 63 7 63 8 1 1 -28 124 -65 272 l-67 270 -50 1 c-27 1
-63 -1 -79 -3z m79 -314 c-6 -11 -104 -12 -104 -1 0 4 9 34 19 67 10 33 24 80
31 105 l12 45 24 -104 c13 -57 21 -108 18 -112z"/>
<path d="M10395 16640 c-104 -22 -182 -81 -226 -174 -80 -168 -24 -351 119
-392 59 -18 144 -15 216 6 l38 12 -7 46 c-4 26 -8 49 -10 50 -2 2 -20 -1 -40
-8 -56 -19 -140 -8 -171 21 -73 67 -72 197 2 279 43 48 87 63 166 58 l61 -3
13 45 c7 24 11 46 9 48 -6 7 -87 21 -110 20 -11 0 -38 -4 -60 -8z"/>
<path d="M9945 16598 c-4 -12 -25 -456 -25 -528 l0 -35 59 3 59 4 6 66 c3 37
9 165 12 285 l7 217 -57 0 c-36 0 -58 -4 -61 -12z"/>
<path d="M9740 16593 c-19 -1 -76 -5 -127 -9 l-91 -6 -6 -101 c-3 -56 -8 -185
-12 -287 l-6 -185 60 3 59 4 7 75 c3 42 6 95 6 118 l0 42 89 5 c49 3 94 8 100
12 6 4 11 28 11 53 l0 46 -101 -6 -101 -6 7 62 c4 34 8 63 9 64 1 1 47 5 104
9 l102 7 0 53 0 54 -37 -2 c-21 0 -54 -3 -73 -5z"/>
<path d="M9290 16563 c-19 -1 -72 -5 -117 -9 l-81 -6 -6 -131 c-3 -73 -8 -201
-12 -285 l-6 -153 64 3 63 3 5 115 5 115 45 2 c25 2 69 5 98 9 l52 5 0 51 0
51 -95 -6 -95 -6 0 63 0 63 61 7 c34 3 82 6 105 6 l44 0 0 55 0 55 -47 -2
c-27 0 -64 -3 -83 -5z"/>
<path d="M8758 16532 l-77 -3 -35 -112 c-19 -62 -58 -186 -86 -277 -27 -91
-53 -173 -56 -183 -5 -16 1 -18 57 -15 l63 3 24 78 23 77 65 2 c35 0 70 1 76
2 8 1 21 -28 31 -69 11 -38 20 -72 22 -73 2 -2 32 -1 68 3 l64 7 -23 82 c-12
44 -46 169 -74 276 -29 107 -55 197 -59 200 -3 3 -41 4 -83 2z m47 -330 c-1
-2 -27 -2 -57 0 l-55 3 31 114 30 114 27 -114 c15 -63 26 -115 24 -117z"/>
<path d="M8107 16490 c-20 -4 -40 -9 -43 -12 -3 -3 -8 -132 -11 -287 l-6 -281
61 0 62 0 0 59 c0 32 3 86 6 120 l7 61 33 0 c49 0 69 -26 89 -116 24 -110 23
-108 91 -105 33 1 60 4 62 5 4 5 -39 179 -53 212 -7 18 -21 37 -32 43 -17 10
-16 12 15 37 44 35 62 73 62 131 0 60 -29 109 -75 129 -37 15 -198 18 -268 4z
m198 -105 c53 -52 9 -130 -77 -141 l-48 -7 0 81 c0 88 1 90 63 91 28 1 45 -6
62 -24z"/>
<path d="M7710 16466 l-145 -11 -3 -52 -3 -53 77 0 77 0 -7 -236 -7 -237 47 7
c26 3 55 6 65 6 17 0 18 16 21 230 2 192 6 232 18 240 8 5 43 10 78 10 l62 0
0 55 0 55 -67 -1 c-38 -1 -133 -7 -213 -13z"/>
<path d="M7077 16430 c-180 -45 -285 -234 -232 -415 22 -77 88 -147 155 -165
61 -17 211 -8 275 17 l50 19 3 152 3 152 -83 0 c-123 0 -128 -3 -128 -61 l0
-49 45 0 44 0 -5 -52 c-9 -83 -6 -81 -84 -76 -74 4 -107 23 -135 78 -33 66
-23 169 21 228 43 55 102 76 200 69 l82 -5 12 45 c10 33 10 47 2 55 -15 15
-175 20 -225 8z"/>
<path d="M6674 16403 c-32 -4 -32 -4 -39 -80 -4 -41 -4 -132 0 -202 l7 -126
-69 135 c-125 241 -134 255 -173 258 -19 2 -54 1 -77 -3 l-43 -6 0 -295 0
-294 33 0 c17 0 42 3 55 6 22 6 22 7 22 223 l1 216 52 -105 c29 -58 79 -154
112 -213 l59 -109 66 7 c36 4 66 8 67 9 1 1 3 132 4 291 l1 290 -23 1 c-13 1
-38 -1 -55 -3z"/>
<path d="M6093 16373 l-53 -4 -2 -270 c-1 -148 -2 -281 -2 -296 -1 -27 0 -27
59 -24 33 1 61 3 62 4 0 1 3 134 4 296 3 190 0 295 -6 296 -6 0 -34 -1 -62 -2z"/>
<path d="M5705 16350 c-60 -4 -125 -8 -142 -9 l-33 -1 0 -56 0 -56 126 8 126
7 -79 -119 c-169 -252 -203 -311 -203 -350 l0 -36 53 5 c28 4 106 9 172 12 66
3 144 8 173 11 l52 5 0 54 0 54 -136 -6 c-120 -5 -136 -4 -128 9 5 8 66 103
137 210 104 160 127 201 127 231 l0 37 -67 -2 c-38 -1 -117 -5 -178 -8z"/>
<path d="M5300 16030 l0 -300 43 0 c23 0 52 3 65 6 l22 6 0 294 0 294 -65 0
-65 0 0 -300z"/>
<path d="M5048 16313 l-47 -4 -31 -99 c-17 -55 -43 -148 -59 -207 -16 -59 -31
-101 -34 -93 -3 8 -15 57 -28 109 -12 52 -34 135 -49 185 l-28 91 -83 -3 c-46
-2 -87 -7 -90 -10 -5 -6 -12 -122 -32 -551 l-2 -45 55 3 c30 1 58 8 62 14 4 7
8 57 8 113 0 55 3 156 7 223 l6 122 42 -168 c24 -92 50 -194 60 -227 l17 -58
51 7 c29 3 52 7 53 8 4 5 124 422 126 436 3 36 15 -141 17 -245 0 -61 4 -131
7 -155 l6 -44 59 3 59 4 0 41 c0 23 -7 155 -15 292 -8 138 -15 253 -15 258 0
7 -30 7 -122 0z"/>
<path d="M4330 15975 l0 -305 28 0 c15 0 44 3 65 6 l37 7 0 298 0 299 -65 0
-65 0 0 -305z"/>
<path d="M4133 16263 l-41 -4 -43 -105 -44 -105 -50 100 -50 101 -72 0 c-43 0
-73 -4 -73 -10 0 -6 36 -72 80 -147 l80 -137 -80 -152 c-44 -84 -80 -155 -80
-158 0 -9 123 -7 136 2 7 4 31 53 55 110 24 56 46 102 49 102 3 0 28 -45 55
-100 l49 -100 73 0 c48 0 73 4 73 11 0 7 -37 73 -81 148 -45 75 -82 141 -82
146 0 6 34 73 76 151 43 78 77 144 77 148 0 6 -29 6 -107 -1z"/>
<path d="M3364 16223 c-21 -4 -21 -4 -162 -521 -14 -50 -23 -94 -21 -96 2 -2
33 -1 69 3 l64 6 19 77 19 76 79 7 c44 4 83 4 86 1 4 -4 16 -37 28 -74 l21
-67 72 -3 c40 -2 72 -1 72 1 0 3 -11 38 -24 78 -14 41 -57 174 -96 297 l-71
222 -67 -1 c-37 -1 -76 -4 -88 -6z m102 -226 c18 -61 31 -113 31 -113 -8 -5
-127 -11 -127 -6 0 4 11 50 25 102 14 52 25 106 25 119 0 42 12 15 46 -102z"/>
<path d="M2936 16201 l-39 -6 -28 -95 c-16 -52 -41 -146 -55 -208 -15 -62 -28
-111 -30 -109 -2 2 -13 39 -24 83 -11 43 -37 135 -58 203 l-37 123 -85 -7
c-47 -3 -87 -9 -90 -11 -4 -4 -29 -606 -25 -612 1 -1 29 1 63 4 l62 7 0 233
c0 149 4 234 10 234 6 0 10 -11 10 -23 0 -22 105 -401 116 -419 3 -4 27 -8 54
-8 l49 0 15 53 c15 52 87 321 104 387 l9 35 6 -55 c4 -30 9 -120 12 -200 3
-80 9 -161 12 -181 l5 -37 62 5 c33 3 61 6 62 7 1 1 -43 600 -45 604 -2 4 -94
-1 -135 -7z"/>
<path d="M12260 15742 c-68 -26 -86 -39 -110 -77 -67 -108 -38 -188 85 -234
33 -12 68 -30 78 -38 25 -24 21 -58 -10 -83 -24 -19 -37 -21 -88 -17 -33 3
-70 8 -81 12 -19 6 -23 1 -34 -45 -7 -28 -10 -53 -7 -56 3 -3 33 -9 68 -14 90
-13 196 16 241 67 45 49 61 140 34 192 -18 34 -48 55 -121 82 -55 20 -85 42
-85 60 0 6 11 21 25 35 24 24 32 25 97 22 l71 -3 15 43 c8 25 10 48 6 52 -19
19 -137 20 -184 2z"/>
<path d="M11872 15715 c-78 -7 -144 -14 -146 -16 -6 -6 -36 -542 -31 -548 6
-6 315 21 319 28 2 3 7 27 11 53 l7 48 -78 -7 c-44 -3 -92 -7 -108 -7 l-30 -1
3 60 c1 33 4 61 6 63 1 2 42 7 90 12 48 5 89 10 90 12 6 6 9 87 3 93 -3 3 -44
2 -92 -3 l-87 -8 3 55 3 56 100 10 100 10 3 53 c2 38 0 52 -10 51 -7 -1 -77
-7 -156 -14z"/>
<path d="M11450 15681 c-165 -51 -265 -218 -230 -384 16 -77 55 -128 121 -157
46 -19 65 -22 129 -17 41 3 90 11 109 18 33 12 33 13 27 57 -3 25 -8 47 -10
49 -2 2 -15 -1 -30 -7 -50 -19 -140 -12 -171 12 -79 62 -71 219 13 290 45 37
95 52 158 44 l53 -6 10 37 c14 51 14 60 -5 67 -22 8 -143 6 -174 -3z"/>
<path d="M11084 15653 l-41 -4 -6 -112 c-4 -62 -7 -148 -7 -192 l-1 -80 -24
64 c-14 34 -53 117 -87 183 l-62 121 -69 -6 c-38 -3 -71 -7 -72 -9 -5 -6 -27
-549 -23 -553 2 -3 27 -2 55 1 l50 6 7 97 c3 53 6 137 6 188 0 50 4 94 8 97 5
3 19 -21 32 -52 13 -31 52 -114 87 -184 62 -126 64 -128 97 -128 18 0 47 3 63
6 l30 6 11 256 c15 312 15 302 0 300 -7 -1 -31 -3 -54 -5z"/>
<path d="M10391 15599 c-52 -5 -97 -11 -100 -15 -6 -6 -31 -546 -25 -553 5 -5
318 21 326 28 3 3 8 26 9 51 l3 45 -84 -3 c-47 -1 -95 -5 -108 -8 -22 -4 -23
-3 -20 63 l3 68 98 9 97 8 0 51 0 50 -95 -7 -95 -6 0 55 c0 63 -4 61 123 69
44 2 80 6 82 8 1 2 5 24 7 51 l6 47 -67 -1 c-36 -1 -108 -6 -160 -10z"/>
<path d="M10084 15573 c-20 -4 -22 -12 -28 -156 -3 -84 -9 -209 -13 -279 l-6
-128 39 0 c21 0 49 3 60 6 23 6 24 10 40 407 l7 157 -39 -1 c-22 -1 -49 -4
-60 -6z"/>
<path d="M9559 15538 l-57 -10 -6 -196 c-4 -109 -8 -235 -9 -282 l-2 -85 48
-3 c64 -4 196 22 260 51 104 48 164 141 174 270 7 99 -9 152 -61 202 -23 22
-60 46 -83 53 -47 14 -182 14 -264 0z m219 -108 c46 -28 66 -80 59 -157 -9
-116 -72 -187 -176 -200 l-54 -6 6 182 c3 100 9 186 12 191 12 19 118 11 153
-10z"/>
<path d="M9288 15513 c-16 -4 -18 -18 -18 -106 -1 -160 -15 -301 -34 -329 -35
-54 -94 -61 -138 -18 l-30 31 4 205 4 205 -60 -7 c-34 -4 -62 -7 -63 -8 -1 -1
-4 -96 -5 -211 -3 -208 -3 -210 22 -254 41 -72 68 -86 163 -86 71 0 88 4 129
28 98 57 117 115 125 370 l6 187 -44 -1 c-24 -1 -52 -3 -61 -6z"/>
<path d="M8581 15461 l-34 -6 -89 -289 c-49 -158 -88 -289 -86 -290 2 -2 30 0
63 3 l59 6 21 72 c11 39 22 74 25 76 3 3 38 7 79 8 l75 4 8 -35 c5 -19 13 -51
18 -71 l10 -35 62 4 c35 2 65 6 66 7 4 3 -114 441 -139 523 -10 30 -13 32 -57
31 -26 -1 -62 -4 -81 -8z m39 -323 c-30 -3 -56 -5 -58 -3 -3 3 3 28 44 173
l16 57 27 -110 27 -110 -56 -7z"/>
<path d="M8061 15408 c-4 -13 -26 -111 -47 -218 -22 -107 -40 -184 -42 -170
-5 39 -51 332 -58 363 -5 26 -8 27 -69 27 l-64 0 -10 -37 c-5 -21 -26 -119
-46 -218 -20 -99 -38 -181 -39 -182 -1 -2 -12 65 -25 148 -12 83 -27 178 -33
211 l-11 60 -58 -4 c-32 -2 -62 -7 -66 -11 -3 -4 20 -131 53 -282 l59 -275 67
0 67 0 10 38 c5 20 27 116 48 212 21 96 39 168 40 160 8 -61 55 -350 60 -367
6 -25 32 -29 104 -17 34 6 36 8 53 77 18 69 121 453 132 490 5 15 -2 17 -56
17 -54 0 -61 -3 -69 -22z"/>
<path d="M7229 15367 l-146 -9 -7 -136 c-3 -74 -6 -205 -6 -291 l0 -157 172
14 c95 7 174 14 176 16 1 2 5 27 9 56 l6 52 -94 -7 c-52 -3 -104 -8 -116 -11
-22 -4 -23 -2 -23 65 l0 68 38 7 c20 3 65 6 98 6 l61 0 7 38 c13 79 19 75
-100 67 l-105 -7 3 58 c3 51 6 59 23 61 11 1 59 5 108 8 l87 7 0 54 c0 50 -2
54 -22 52 -13 0 -89 -6 -169 -11z"/>
<path d="M6898 15343 c-37 -4 -37 -4 -44 -61 -4 -31 -4 -122 0 -202 l6 -145
-38 80 c-22 45 -67 131 -102 193 l-62 113 -77 -3 -76 -3 -3 -294 -2 -294 37 7
c21 3 48 6 61 6 l22 0 0 208 0 207 74 -142 c41 -79 89 -168 106 -198 l31 -55
63 0 63 0 7 38 c3 20 6 153 6 295 0 239 -1 257 -17 255 -10 -1 -35 -3 -55 -5z"/>
<path d="M5975 15276 c-68 -21 -120 -53 -158 -95 -48 -54 -64 -86 -78 -164
-10 -56 -10 -76 5 -134 20 -84 55 -129 127 -166 50 -27 60 -28 149 -25 55 3
119 12 153 23 l57 19 0 158 0 159 -62 -6 c-35 -3 -82 -8 -105 -11 l-43 -5 0
-50 0 -49 45 0 46 0 -3 -62 -3 -63 -65 -3 c-83 -3 -123 19 -152 85 -16 36 -19
60 -15 109 5 73 28 115 81 152 36 25 47 27 138 27 l98 0 10 35 c15 53 12 67
-12 74 -39 10 -171 5 -213 -8z"/>
<path d="M5581 15253 l-54 -4 6 -202 6 -202 -53 105 c-29 58 -75 143 -102 190
l-50 85 -77 3 -77 3 0 -302 0 -301 23 6 c12 3 40 6 61 6 l39 0 -6 218 -7 217
63 -120 c35 -66 85 -159 113 -207 47 -85 50 -88 85 -88 20 0 51 3 68 6 l31 7
0 293 c0 162 -3 293 -7 292 -5 -1 -32 -3 -62 -5z"/>
<path d="M4993 15212 l-63 -3 0 -295 0 -295 66 3 66 3 -1 295 c-1 162 -3 295
-4 295 -1 0 -30 -1 -64 -3z"/>
<path d="M4713 15193 c-22 -4 -23 -8 -23 -113 l0 -109 -52 -5 c-29 -3 -79 -7
-110 -10 l-58 -5 0 116 0 116 -46 -7 c-26 -3 -56 -6 -67 -6 -20 0 -20 -4 -14
-296 3 -162 7 -297 9 -298 1 -2 31 -1 66 2 l62 4 -6 123 c-4 69 -3 124 2 127
5 3 55 9 112 13 l102 7 0 -126 0 -126 34 0 c18 0 48 3 65 6 l31 7 0 293 0 294
-42 -1 c-24 -1 -53 -4 -65 -6z"/>
<path d="M4025 15144 c-151 -48 -235 -176 -222 -341 10 -129 77 -217 189 -243
56 -14 184 -8 234 10 31 11 31 12 23 57 -5 26 -11 48 -13 51 -3 2 -29 -2 -59
-8 -105 -24 -191 10 -223 87 -20 47 -17 140 5 190 12 26 35 52 62 70 39 25 51
28 129 28 l87 0 10 50 c6 27 9 52 7 54 -13 14 -183 9 -229 -5z"/>
<path d="M3440 15111 l-55 -6 -82 -295 c-46 -162 -83 -300 -83 -307 0 -14 122
-5 132 11 4 6 13 36 19 67 6 31 14 61 18 68 4 6 44 14 89 18 l81 6 23 -78 23
-77 50 6 c27 3 60 6 71 6 20 0 16 18 -74 295 l-96 295 -30 -2 c-17 -1 -56 -4
-86 -7z m65 -230 l32 -109 -61 -5 c-33 -3 -62 -4 -63 -3 -2 1 9 55 24 119 15
64 29 114 32 111 2 -2 19 -53 36 -113z"/>
<path d="M2975 15083 c-27 -1 -82 -5 -122 -9 l-72 -6 5 -281 c3 -155 7 -291 9
-302 4 -20 7 -20 167 -8 90 6 173 12 186 12 20 1 22 6 22 57 l0 56 -125 -7
-125 -7 0 70 0 71 53 5 c28 4 77 7 107 9 l55 2 3 54 3 54 -110 -5 -111 -4 0
63 0 63 48 0 c26 0 77 3 115 7 l67 6 0 53 0 54 -62 -2 c-35 -1 -85 -3 -113 -5z"/>
<path d="M2380 15049 c-130 -15 -120 -5 -120 -117 0 -53 3 -188 7 -299 l6
-203 46 0 c90 0 86 -5 83 130 l-4 120 45 0 c56 0 72 -17 97 -106 36 -133 32
-128 101 -121 33 3 62 7 64 9 7 7 -55 208 -71 234 -9 13 -23 28 -32 33 -12 7
-7 16 26 49 44 44 59 88 48 150 -16 102 -114 142 -296 121z m153 -121 c19 -23
22 -69 6 -100 -13 -24 -67 -48 -109 -48 -30 0 -30 0 -32 60 -1 33 -2 70 -2 82
-2 42 102 47 137 6z"/>
<path d="M11195 14641 c-58 -10 -114 -42 -149 -85 -27 -33 -31 -46 -31 -98 0
-56 2 -62 36 -93 21 -19 62 -41 94 -51 63 -20 91 -50 80 -84 -12 -38 -49 -53
-118 -48 -34 3 -68 7 -76 9 -9 3 -19 -12 -30 -44 -18 -57 -14 -62 60 -72 63
-9 146 9 201 44 73 46 108 146 76 216 -14 30 -53 56 -130 85 -66 24 -82 41
-74 74 8 34 55 50 126 43 l59 -5 15 46 c9 25 16 47 16 48 0 6 -76 24 -95 23
-11 -1 -38 -4 -60 -8z"/>
<path d="M10653 14590 c-90 -21 -164 -93 -204 -199 -31 -83 -24 -201 17 -267
91 -147 326 -119 420 51 74 134 63 304 -26 378 -50 42 -127 56 -207 37z m114
-121 c71 -68 47 -266 -40 -319 -93 -57 -171 8 -170 142 1 157 122 259 210 177z"/>
<path d="M10154 14548 l-101 -10 -7 -121 c-3 -67 -9 -193 -12 -279 l-7 -158
39 1 c61 1 282 24 288 30 3 3 9 27 12 53 l7 48 -84 -6 c-46 -4 -97 -10 -113
-13 l-29 -5 5 60 c4 33 9 65 12 70 3 5 46 13 96 16 l90 8 0 54 c0 48 -2 55
-17 50 -10 -2 -53 -7 -95 -11 l-78 -7 0 51 c0 62 6 66 120 75 46 4 85 8 86 9
1 1 5 23 8 50 l7 47 -63 -1 c-35 -1 -109 -6 -164 -11z"/>
<path d="M9576 14499 c-33 -5 -64 -13 -70 -19 -9 -9 -24 -277 -25 -462 l-1
-88 63 0 c257 0 403 113 415 321 7 119 -22 185 -101 230 -34 19 -59 24 -132
25 -49 2 -117 -1 -149 -7z m211 -123 c36 -32 38 -37 41 -108 3 -64 0 -79 -25
-128 -31 -61 -82 -94 -161 -106 l-43 -7 6 169 c8 231 2 214 80 214 60 0 68 -3
102 -34z"/>
<path d="M9303 14473 l-31 -4 -6 -132 c-3 -73 -8 -199 -12 -280 l-6 -148 59 3
58 3 6 75 c4 41 10 168 13 283 l7 207 -28 -2 c-15 0 -42 -3 -60 -5z"/>
<path d="M9103 14453 c-19 -4 -29 -25 -67 -146 -25 -78 -54 -175 -65 -216 -22
-79 -31 -97 -31 -63 0 12 -21 107 -46 212 l-46 190 -42 -1 c-22 -1 -53 -4 -67
-8 l-26 -6 77 -270 77 -270 69 4 c38 2 70 4 72 6 3 2 202 567 202 572 0 4 -81
1 -107 -4z"/>
<path d="M8458 14400 c-38 -3 -70 -8 -72 -11 -2 -2 -40 -60 -85 -129 l-81
-125 0 123 0 123 -57 -7 c-32 -3 -59 -7 -61 -9 -1 -1 -5 -129 -9 -285 l-6
-283 24 6 c13 4 41 7 62 7 l37 0 0 92 c0 83 2 94 26 125 l26 34 62 -113 c69
-125 72 -127 164 -111 l42 8 -85 145 c-46 80 -85 150 -85 157 0 7 38 65 85
129 71 98 98 141 83 133 -2 -1 -33 -5 -70 -9z"/>
<path d="M7682 14331 c-149 -51 -236 -240 -187 -406 50 -172 255 -220 399 -94
109 96 143 277 77 406 -24 48 -45 67 -101 92 -56 25 -119 26 -188 2z m136
-107 c35 -23 52 -74 52 -156 -1 -128 -50 -198 -139 -198 -39 0 -52 5 -74 28
-38 40 -54 116 -39 193 23 127 115 188 200 133z"/>
<path d="M7185 14295 c-77 -7 -146 -14 -152 -14 -9 -1 -13 -19 -13 -55 l0 -53
70 5 70 5 0 -233 0 -232 58 7 c31 4 58 8 58 8 1 1 6 106 10 232 l9 230 70 5
70 5 3 53 3 52 -58 -1 c-32 -1 -121 -7 -198 -14z"/>
<path d="M6898 14273 l-47 -4 -86 -137 -85 -136 0 128 0 128 -55 -4 c-30 -3
-58 -8 -62 -11 -3 -4 -8 -133 -11 -287 l-5 -280 51 0 c82 0 82 0 82 106 0 86
2 95 26 121 14 15 27 24 30 18 2 -5 31 -58 64 -116 l60 -107 67 5 c38 3 70 7
72 9 2 2 -37 72 -88 155 -51 84 -90 157 -88 163 3 6 41 62 85 124 45 62 84
117 87 122 6 10 -3 10 -97 3z"/>
<path d="M6327 14223 c-3 -5 -8 -135 -12 -290 l-8 -283 54 0 c30 0 59 4 66 8
9 6 13 82 15 290 l3 282 -57 0 c-31 0 -59 -3 -61 -7z"/>
<path d="M6010 14200 c-107 -10 -196 -19 -197 -19 -2 -1 -3 -25 -3 -55 l0 -54
75 5 75 6 0 -234 0 -234 62 5 63 5 3 238 2 237 38 0 c20 0 54 3 75 6 l37 7 0
53 c0 45 -3 54 -17 53 -10 -1 -106 -9 -213 -19z"/>
<path d="M5450 14051 c0 -61 -3 -112 -7 -114 -5 -3 -54 -8 -110 -12 l-103 -7
0 112 0 113 -31 -7 c-17 -3 -44 -6 -60 -6 l-29 0 0 -295 0 -296 53 6 c28 4 58
8 65 10 9 3 12 37 12 124 l0 119 38 6 c20 3 67 8 105 11 l67 7 0 -127 0 -127
31 6 c17 3 44 6 60 6 l29 0 0 290 0 290 -60 0 -60 0 0 -109z"/>
<path d="M4810 14104 c-80 -7 -160 -13 -177 -13 l-33 -1 0 -56 0 -57 75 6 75
7 0 -241 c0 -216 2 -241 16 -235 9 3 38 6 65 6 l49 0 0 239 0 238 80 7 80 7 0
55 0 54 -42 -1 c-24 -1 -108 -7 -188 -15z"/>
<path d="M4413 14073 c-10 -3 -13 -72 -13 -293 0 -159 3 -290 8 -293 4 -2 33
-1 65 1 l57 4 0 294 0 294 -52 -1 c-29 0 -59 -3 -65 -6z"/>
<path d="M4253 14063 l-51 -4 -21 -117 c-12 -64 -30 -164 -40 -222 -17 -98
-18 -102 -25 -65 -46 239 -68 353 -72 368 -4 14 -17 17 -70 17 -78 0 -70 16
-113 -220 -47 -259 -44 -252 -65 -133 -10 56 -28 153 -40 215 -25 127 -23 124
-111 113 l-52 -6 72 -287 72 -287 68 2 c37 2 70 5 73 8 3 2 24 100 47 217 40
202 43 210 50 163 7 -51 62 -328 70 -355 4 -12 19 -14 75 -12 38 2 70 5 70 7
0 1 29 124 64 271 84 356 80 334 64 332 -7 -1 -36 -3 -65 -5z"/>
<path d="M8475 13303 c-11 -2 -161 -16 -333 -32 -340 -32 -359 -36 -395 -99
-17 -29 -19 -70 -28 -449 -5 -230 -13 -620 -19 -868 -5 -247 -14 -697 -20
-1000 -13 -608 -15 -629 -78 -749 -126 -241 -409 -354 -628 -250 -65 31 -148
118 -182 191 -31 70 -42 203 -22 292 45 209 218 382 422 425 80 16 111 34 135
79 15 28 18 77 24 392 7 391 6 407 -46 441 -72 47 -374 -32 -601 -157 -240
-133 -444 -327 -599 -567 -98 -153 -186 -385 -221 -582 -27 -151 -25 -389 5
-528 89 -418 351 -736 723 -876 238 -90 558 -90 823 -1 112 37 264 113 375
186 118 78 338 296 429 424 121 171 237 443 276 646 20 102 30 306 46 931 7
263 16 483 20 489 5 8 26 4 70 -14 76 -30 196 -61 299 -77 93 -14 347 -14 399
0 45 12 96 64 105 107 7 33 26 494 26 635 0 94 -1 99 -29 130 l-29 33 -119 1
c-140 1 -214 18 -326 76 -212 110 -357 363 -357 624 0 79 -19 121 -65 140 -34
14 -42 15 -80 7z"/>
<path d="M10202 8655 c-79 -13 -144 -25 -146 -27 -54 -84 -233 -375 -285 -462
l-71 -120 1 105 c1 57 4 175 7 262 4 87 6 160 4 161 -3 4 -244 -33 -249 -37
-3 -4 -41 -944 -44 -1100 -1 -54 0 -100 3 -102 6 -7 230 33 239 42 4 5 11 93
15 196 l7 188 49 71 c30 41 54 66 59 61 5 -5 61 -105 125 -223 63 -118 119
-219 124 -223 9 -10 290 34 290 45 0 9 -32 65 -229 400 -66 114 -121 212 -121
219 0 6 26 48 58 92 73 101 315 447 326 465 9 15 14 15 -162 -13z"/>
<path d="M8745 8450 c-294 -44 -510 -264 -577 -590 -23 -107 -20 -253 6 -349
39 -142 133 -259 241 -301 212 -81 514 13 670 209 107 134 164 296 172 486 10
251 -69 426 -230 505 -90 44 -174 56 -282 40z m106 -243 c115 -60 166 -254
123 -465 -30 -148 -95 -252 -192 -305 -130 -71 -248 -34 -313 100 -31 61 -33
74 -37 187 -6 179 33 313 119 411 78 89 208 120 300 72z"/>
<path d="M7900 8304 c-80 -12 -277 -42 -437 -65 l-293 -43 0 -118 c0 -118 0
-118 23 -113 12 2 74 12 137 20 63 9 123 19 134 22 18 5 18 -9 11 -496 -4
-284 -4 -501 1 -501 17 1 247 40 250 42 1 2 8 226 14 498 6 272 12 496 14 497
1 2 72 13 157 26 l154 23 6 29 c4 17 7 69 8 118 1 77 -1 87 -16 86 -10 -1 -83
-12 -163 -25z"/>
<path d="M6951 8164 c-85 -13 -155 -25 -156 -26 -18 -28 -254 -420 -296 -491
-31 -54 -60 -102 -64 -105 -4 -4 -5 115 -1 265 3 150 3 274 -2 276 -8 5 -251
-29 -258 -36 -3 -3 -8 -285 -11 -626 l-6 -622 24 5 c13 3 71 12 128 21 58 9
108 18 113 21 4 3 8 96 8 207 l0 202 48 67 c26 37 50 67 53 68 6 0 164 -267
260 -437 15 -27 31 -43 43 -43 43 0 286 43 286 51 0 5 -86 146 -191 315 -105
169 -193 313 -196 320 -2 7 84 141 191 297 108 157 196 288 196 291 0 3 -3 6
-7 5 -5 -1 -77 -12 -162 -25z"/>
<path d="M5765 7994 c-49 -8 -96 -16 -102 -19 -10 -3 -13 -137 -13 -623 0
-340 2 -621 5 -623 2 -3 62 4 133 14 l129 20 6 276 c4 152 7 432 7 624 l0 347
-37 -1 c-21 -1 -78 -8 -128 -15z"/>
<path d="M5000 7886 l-435 -62 -3 -117 c-3 -138 -25 -127 183 -97 77 11 143
20 148 20 4 0 7 -229 7 -510 0 -280 2 -510 5 -510 10 0 211 30 238 36 l27 6 0
508 0 508 28 6 c15 3 79 12 142 21 63 9 127 18 143 21 l27 6 0 114 0 114 -37
-1 c-21 -1 -234 -29 -473 -63z"/>
<path d="M11895 7323 c-71 -10 -156 -37 -235 -75 -68 -33 -101 -57 -166 -122
-122 -123 -183 -248 -204 -423 -24 -187 29 -346 139 -418 80 -54 222 -69 351
-40 75 18 215 72 229 89 8 10 -3 163 -13 173 -1 1 -38 -13 -82 -32 -140 -61
-248 -57 -324 11 -49 45 -70 105 -70 203 0 176 77 320 207 388 71 38 140 53
238 53 l73 0 20 68 c36 119 36 119 10 126 -24 6 -123 6 -173 -1z"/>
<path d="M11040 7148 c-58 -11 -106 -20 -106 -21 -1 -1 -9 -150 -18 -332 -9
-181 -21 -402 -26 -490 -6 -88 -10 -176 -10 -196 l0 -35 110 19 109 20 5 41
c3 23 15 223 26 446 11 223 23 442 27 488 3 46 2 81 -3 81 -5 -1 -56 -10 -114
-21z"/>
<path d="M10615 7069 c-77 -15 -213 -40 -302 -55 l-161 -27 -6 -121 c-13 -254
-43 -941 -41 -944 1 -1 52 7 112 19 l111 21 6 76 c3 43 8 139 12 215 3 75 7
137 8 137 8 0 350 70 351 72 2 2 6 45 9 96 6 73 5 92 -6 92 -7 0 -82 -14 -167
-30 -85 -17 -161 -30 -168 -30 -12 0 -13 20 -7 118 3 64 7 118 8 119 1 2 85
18 186 38 101 19 188 39 192 43 5 5 7 49 6 98 l-3 89 -140 -26z"/>
<path d="M9880 6938 c-25 -6 -153 -29 -285 -52 l-240 -41 -8 -160 c-13 -278
-35 -910 -32 -913 5 -5 215 35 222 42 4 4 11 100 15 213 5 114 11 209 13 211
2 3 81 19 176 38 94 18 173 35 176 37 2 3 7 46 10 96 6 85 5 91 -13 91 -10 0
-90 -14 -178 -30 -87 -17 -160 -30 -162 -30 -6 0 -4 172 2 211 l6 35 192 35
191 35 3 97 c3 110 7 106 -88 85z"/>
<path d="M8718 6736 c-71 -13 -130 -25 -132 -27 -5 -4 -128 -409 -258 -844
-32 -110 -66 -220 -74 -244 -7 -25 -12 -46 -9 -49 4 -4 226 35 231 41 1 1 19
63 39 137 21 74 41 139 45 143 6 7 256 57 286 57 6 0 25 -55 44 -122 18 -68
34 -126 36 -129 3 -6 232 36 240 43 2 3 -23 103 -56 224 -33 120 -90 327 -126
459 -92 336 -91 335 -117 334 -12 -1 -79 -11 -149 -23z m106 -604 c-2 -4 -217
-42 -220 -39 -2 2 8 43 22 92 13 50 38 144 55 210 16 66 32 127 35 135 3 8 29
-77 58 -190 28 -113 51 -206 50 -208z"/>
<path d="M7795 6584 c-99 -15 -361 -76 -372 -88 -7 -7 -26 -1067 -19 -1073 3
-4 54 2 113 13 l108 19 6 95 c4 52 7 150 8 216 l1 121 38 7 c148 24 166 6 220
-227 17 -70 35 -134 41 -141 8 -10 33 -8 123 7 62 11 114 20 115 21 6 5 -86
346 -102 379 -16 35 -58 79 -87 90 -9 4 -3 13 17 29 96 74 148 167 153 275 2
39 -1 88 -8 108 -17 51 -67 105 -118 127 -42 19 -174 31 -237 22z m71 -199
c60 -25 80 -104 45 -180 -35 -76 -100 -116 -211 -131 l-50 -7 0 151 0 151 38
10 c20 5 46 12 57 14 41 9 87 7 121 -8z"/>
<path d="M6872 6425 c-204 -35 -379 -65 -387 -69 -12 -4 -15 -26 -15 -106 0
-55 3 -100 8 -100 4 0 61 9 127 20 66 11 128 20 137 20 17 0 17 -26 11 -446
l-6 -447 24 6 c13 3 65 13 115 22 l91 17 7 66 c3 37 6 178 6 313 0 135 3 307
6 381 l7 135 141 24 141 24 3 103 c3 101 2 102 -20 101 -13 -1 -191 -29 -396
-64z"/>
<path d="M5995 6283 c-11 -2 -155 -25 -320 -51 l-300 -47 -3 -558 c-1 -306 1
-557 5 -557 25 1 664 110 673 115 6 3 10 47 10 101 0 79 -2 94 -16 94 -16 0
-361 -56 -401 -65 -23 -5 -23 -5 -23 129 0 131 1 134 23 139 12 3 99 18 193
33 l172 28 6 44 c7 54 8 147 1 154 -3 2 -83 -8 -177 -23 -95 -16 -183 -29
-195 -29 -23 0 -23 2 -23 114 l0 114 33 5 c17 3 112 18 210 33 l177 28 0 103
c0 107 1 106 -45 96z"/>
<path d="M4830 6100 c-168 -27 -309 -49 -313 -49 -9 -1 -5 -1106 4 -1115 5 -5
567 80 662 100 l27 6 0 99 c0 57 -4 99 -10 99 -9 0 -351 -54 -412 -65 l-28 -4
0 134 c0 74 1 135 3 136 1 0 90 15 197 32 l195 32 3 103 3 104 -28 -6 c-48
-10 -343 -56 -358 -56 -12 0 -15 21 -15 115 0 111 1 115 23 120 12 3 99 16
192 30 94 14 180 28 193 31 22 4 23 8 20 102 -3 96 -3 97 -28 98 -14 1 -162
-20 -330 -46z"/>
<path d="M3840 5955 c-102 -18 -251 -52 -284 -65 l-27 -10 6 -332 c3 -183 8
-432 11 -554 l6 -221 52 8 c28 5 81 13 119 20 l67 11 0 223 0 223 68 7 c125
12 154 -17 202 -203 11 -46 30 -108 41 -138 24 -63 20 -62 170 -37 100 16 101
17 95 42 -23 99 -107 357 -127 386 -13 20 -41 46 -61 58 l-37 23 52 40 c180
141 179 418 -1 502 -49 23 -72 27 -167 29 -60 1 -144 -4 -185 -12z m163 -189
c50 -21 70 -50 75 -109 10 -118 -70 -192 -229 -211 l-56 -7 -7 62 c-3 34 -6
104 -6 155 0 89 1 94 23 99 123 29 155 30 200 11z"/>
<path d="M2976 5819 c-175 -27 -321 -50 -323 -52 -6 -7 20 -1106 28 -1118 4
-7 42 -5 125 8 l119 19 -4 227 -3 226 24 5 c30 7 353 56 367 56 7 0 11 36 11
106 l0 106 -27 -6 c-35 -7 -360 -56 -373 -56 -6 0 -10 53 -10 129 l0 129 63
10 c34 6 131 21 215 33 l152 23 0 103 c0 100 -1 103 -22 102 -13 -1 -166 -23
-342 -50z"/>
<path d="M11155 5664 c-110 -24 -270 -58 -356 -75 -86 -17 -162 -34 -167 -38
-6 -4 -14 -48 -18 -99 -6 -75 -4 -92 7 -92 8 1 66 12 129 25 63 13 117 22 119
20 3 -4 -21 -504 -35 -737 -4 -65 -3 -98 4 -98 22 0 197 43 205 50 4 4 18 192
30 418 13 226 25 414 28 417 4 3 62 18 130 33 121 27 124 29 130 57 9 43 10
165 2 164 -5 0 -98 -20 -208 -45z"/>
<path d="M10370 5501 l-75 -17 -7 -49 c-3 -28 -10 -192 -14 -367 l-7 -316 -43
104 c-31 77 -265 523 -290 552 -2 4 -255 -46 -260 -51 -4 -4 -45 -1049 -42
-1053 2 -1 47 7 100 18 l97 21 5 51 c9 78 26 698 20 707 -3 5 -1 9 3 9 5 0 28
-44 52 -97 40 -92 284 -557 301 -577 11 -11 208 34 226 52 9 8 14 35 14 70 0
31 9 244 20 472 25 528 25 490 -2 489 -13 -1 -57 -9 -98 -18z"/>
<path d="M9350 5296 l-105 -22 -7 -99 c-3 -55 -11 -275 -17 -490 -6 -214 -13
-409 -16 -432 -3 -24 -1 -43 3 -43 4 1 54 11 112 24 l105 22 7 80 c3 43 11
232 17 419 7 187 14 391 18 453 3 64 2 112 -3 111 -5 -1 -56 -11 -114 -23z"/>
<path d="M8605 5155 c-119 -25 -253 -63 -259 -73 -7 -11 -29 -1042 -23 -1048
6 -6 207 33 216 42 3 3 8 99 11 212 l5 207 30 6 c48 11 115 10 136 -1 29 -16
46 -58 75 -186 14 -66 32 -133 39 -151 l13 -32 54 14 c29 7 79 19 111 25 53
11 58 14 54 33 -74 329 -94 384 -153 419 l-34 20 36 28 c92 74 144 177 144
286 0 104 -37 169 -115 205 -58 27 -199 24 -340 -6z m192 -180 c32 -22 46 -61
39 -114 -12 -91 -74 -147 -196 -175 -36 -9 -69 -16 -74 -16 -9 0 -2 287 7 296
2 3 33 11 68 19 73 16 120 13 156 -10z"/>
<path d="M7695 4984 c-60 -13 -139 -33 -175 -44 l-67 -20 -6 -367 c-4 -203 -7
-443 -7 -536 l0 -167 23 5 c12 3 63 13 112 23 l90 18 3 192 c1 106 5 192 8
192 3 0 38 7 78 15 287 59 450 238 434 477 -8 117 -64 199 -157 227 -63 18
-214 12 -336 -15z m214 -178 c96 -50 53 -233 -69 -296 -31 -15 -123 -40 -151
-40 -6 0 -8 62 -7 162 l3 162 40 12 c56 17 151 17 184 0z"/>
<path d="M6939 4842 l-306 -55 -6 -246 c-4 -135 -7 -381 -7 -547 l0 -300 326
62 c180 35 328 65 331 67 2 3 2 47 1 99 l-3 95 -195 -38 c-107 -21 -204 -38
-214 -38 -18 -1 -19 5 -13 126 4 70 10 130 14 133 5 4 90 22 191 40 l182 34 0
98 c0 54 -2 98 -4 98 -10 0 -343 -61 -358 -66 -16 -5 -18 5 -18 109 l0 115
113 20 c61 12 154 29 205 38 l92 17 0 98 c0 73 -3 99 -12 98 -7 0 -151 -26
-319 -57z"/>
<path d="M6360 4740 c-19 -4 -67 -13 -107 -20 l-72 -12 -3 -371 c-4 -426 -8
-447 -84 -524 -81 -80 -208 -85 -258 -9 -40 62 -46 125 -46 489 l0 349 -27 -6
c-38 -9 -196 -36 -205 -36 -5 0 -8 -161 -8 -357 0 -275 4 -374 15 -427 27
-129 78 -200 174 -244 111 -51 312 -21 447 66 109 70 175 173 209 322 23 105
36 791 14 789 -8 -1 -30 -5 -49 -9z"/>
<path d="M4870 4484 c-41 -7 -90 -16 -107 -19 l-33 -6 0 -293 c0 -161 3 -409
7 -550 l6 -258 46 7 c103 15 604 106 612 111 5 3 9 50 9 105 l0 101 -27 -6
c-81 -17 -368 -66 -384 -66 -18 0 -19 18 -19 445 0 418 -1 445 -17 444 -10 -1
-52 -7 -93 -15z"/>
<path d="M4195 4372 c-137 -12 -418 -71 -438 -91 -8 -8 7 -1079 15 -1085 6 -5
180 13 276 29 261 44 415 133 484 281 36 77 41 172 13 242 -22 53 -86 110
-142 125 -24 6 -43 14 -43 17 0 3 20 20 45 38 116 82 154 243 82 349 -45 66
-169 106 -292 95z m17 -192 c49 -14 68 -43 68 -104 0 -45 -4 -53 -44 -92 -45
-42 -96 -64 -193 -79 l-43 -7 0 131 c0 147 -10 131 90 150 63 12 80 12 122 1z
m31 -456 c94 -45 87 -194 -11 -259 -40 -26 -138 -55 -188 -55 l-32 0 -7 73
c-3 39 -5 110 -3 157 l3 85 40 6 c80 12 164 9 198 -7z"/>
<path d="M10657 3065 c-43 -12 -80 -24 -82 -26 -7 -7 -18 -309 -11 -309 4 0
45 10 91 21 83 21 85 22 85 51 0 28 -2 30 -26 24 -85 -22 -86 -22 -82 14 3 30
8 35 53 49 43 14 50 20 53 45 3 27 2 28 -23 22 -83 -21 -85 -21 -85 12 0 21 6
32 18 36 9 3 36 10 60 16 37 10 42 14 42 40 0 17 -3 30 -7 29 -5 -1 -43 -11
-86 -24z"/>
<path d="M10445 3011 c-83 -21 -149 -81 -171 -159 -19 -64 -12 -111 21 -149
20 -24 30 -28 72 -26 26 1 69 11 94 22 l46 21 7 81 c4 44 5 83 3 86 -3 2 -27
-1 -54 -9 -41 -12 -48 -17 -51 -42 -3 -24 -1 -27 18 -21 20 6 21 4 18 -32 -3
-36 -5 -38 -41 -41 -21 -2 -45 2 -52 8 -21 17 -29 74 -16 113 16 47 47 73 106
89 53 13 65 22 65 51 0 18 -15 20 -65 8z"/>
<path d="M10069 2913 l-46 -16 -7 -60 c-3 -33 -6 -102 -6 -154 l0 -93 28 6
c36 9 33 4 39 73 6 60 17 76 48 65 8 -4 15 -11 15 -18 0 -6 5 -28 11 -48 8
-33 14 -38 39 -38 16 0 31 3 34 8 8 13 -13 105 -28 121 -13 14 -11 20 10 46
29 36 31 85 6 108 -23 21 -81 21 -143 0z m91 -66 c0 -26 -23 -51 -57 -61 -21
-7 -23 -4 -23 32 0 47 4 52 47 52 28 0 33 -4 33 -23z"/>
<path d="M9790 2848 c-68 -35 -103 -93 -108 -177 -4 -64 -2 -70 25 -101 24
-27 36 -32 71 -32 85 1 150 56 178 148 40 134 -50 222 -166 162z m82 -55 c25
-23 25 -107 -2 -151 -23 -38 -63 -57 -89 -42 -52 27 -38 153 21 194 29 20 47
20 70 -1z"/>
<path d="M9550 2796 l-85 -21 -6 -75 c-4 -41 -7 -112 -8 -158 l-1 -82 28 7
c15 3 56 14 92 22 60 15 65 18 68 45 4 32 13 31 -89 10 -30 -7 -30 -6 -27 27
3 32 6 35 56 48 48 13 52 16 52 44 0 27 -2 29 -27 22 -81 -19 -75 -21 -71 16
3 31 7 35 48 44 25 5 51 14 58 18 13 9 17 43 5 50 -5 2 -46 -6 -93 -17z"/>
<path d="M9275 2731 c-74 -34 -118 -92 -130 -173 -9 -58 8 -113 41 -135 32
-20 117 -14 170 14 l39 20 3 86 c1 48 1 87 -1 87 -2 0 -27 -7 -55 -15 -44 -14
-52 -19 -52 -40 0 -18 5 -25 20 -25 16 0 20 -7 20 -35 0 -31 -3 -35 -37 -41
-32 -6 -40 -3 -60 20 -28 33 -29 67 -4 123 22 48 48 65 110 73 38 4 46 9 52
33 7 26 6 27 -34 27 -23 0 -60 -9 -82 -19z"/>
<path d="M8969 2653 c-20 -5 -29 -32 -29 -89 0 -39 -2 -41 -39 -52 -64 -20
-66 -18 -63 43 4 52 3 55 -20 55 -45 0 -48 -8 -55 -174 l-6 -157 29 7 c44 10
44 11 44 79 l0 64 43 11 c23 6 48 13 55 15 9 3 12 -13 12 -60 0 -69 8 -78 51
-55 18 10 19 23 19 165 0 161 0 159 -41 148z"/>
<path d="M8655 2581 c-95 -24 -159 -96 -166 -191 -5 -55 2 -81 30 -112 25 -28
34 -32 77 -31 27 0 66 8 87 17 33 13 37 19 31 38 -9 31 -9 31 -32 19 -36 -19
-89 -13 -106 11 -33 47 -9 150 42 177 11 6 38 13 60 17 29 4 42 12 46 27 9 37
-5 43 -69 28z"/>
<path d="M8264 2485 c-82 -49 -122 -181 -80 -262 22 -43 50 -56 103 -50 89 10
163 102 163 205 0 29 -7 66 -15 83 -28 54 -104 65 -171 24z m100 -57 c20 -29
20 -101 1 -143 -15 -31 -50 -55 -80 -55 -41 0 -61 111 -30 170 27 53 82 67
109 28z"/>
<path d="M8063 2443 c-9 -3 -13 -36 -13 -111 l0 -107 -19 40 c-36 80 -91 156
-109 151 -66 -18 -60 -2 -64 -169 -2 -84 0 -156 3 -160 3 -4 18 -5 32 -2 26 7
26 7 29 122 l3 114 55 -101 55 -102 34 6 c18 3 35 6 36 8 1 2 5 74 9 161 l6
157 -22 -1 c-13 0 -29 -3 -35 -6z"/>
<path d="M7705 2371 l-80 -17 -5 -158 c-3 -87 -2 -160 2 -162 3 -2 37 3 75 11
37 8 78 18 91 20 17 4 22 12 22 36 0 28 -3 31 -22 25 -13 -3 -40 -9 -60 -12
-38 -7 -38 -7 -38 29 0 35 1 36 55 47 52 11 55 13 55 42 0 32 2 32 -87 11 -21
-5 -23 -1 -23 30 0 34 0 34 60 46 57 11 60 13 60 42 0 33 4 33 -105 10z"/>
<path d="M7391 2298 c-41 -10 -75 -19 -76 -20 -2 -2 -4 -75 -6 -163 -3 -137
-2 -160 11 -160 11 0 17 18 22 74 3 40 10 77 15 81 4 5 28 12 53 17 32 6 46
14 48 27 3 16 0 18 -23 12 -15 -4 -41 -10 -57 -13 l-29 -6 3 54 3 54 53 11
c60 14 65 17 60 37 -2 12 -15 11 -77 -5z"/>
<path d="M7084 2231 c-51 -23 -80 -59 -99 -125 -29 -97 7 -188 80 -202 43 -8
112 23 141 63 67 92 55 244 -22 273 -36 14 -53 12 -100 -9z m86 -31 c41 -22
52 -118 21 -186 -35 -76 -109 -100 -150 -48 -24 30 -29 129 -10 167 34 66 90
93 139 67z"/>
<path d="M6798 2163 c-8 -10 -37 -51 -64 -92 l-49 -73 -3 76 c-3 76 -8 86 -30
64 -12 -12 -18 -309 -6 -321 3 -3 12 -3 20 0 10 4 14 23 14 65 0 58 12 98 29
98 5 0 30 -29 56 -65 30 -42 53 -65 66 -65 29 0 24 15 -36 97 l-55 75 56 79
c46 65 52 79 36 79 -10 0 -26 -8 -34 -17z"/>
<path d="M6474 2110 c-32 -13 -74 -69 -74 -99 0 -40 19 -59 80 -78 57 -19 67
-33 56 -79 -8 -31 -39 -47 -93 -46 -36 1 -43 -2 -43 -18 0 -16 7 -20 35 -20
96 0 169 76 144 150 -10 27 -34 42 -91 56 -36 8 -52 28 -44 59 8 30 38 48 85
49 26 1 37 6 39 19 3 14 -4 17 -35 16 -21 0 -47 -4 -59 -9z"/>
<path d="M6255 2066 c-27 -6 -56 -15 -62 -19 -15 -9 -19 -312 -5 -321 4 -2 44
3 87 12 62 13 81 21 83 36 4 20 5 20 -100 -1 l-28 -5 0 60 0 60 49 7 c47 6 82
28 67 42 -3 3 -31 2 -61 -4 l-56 -10 3 51 3 51 55 10 c39 7 56 15 58 28 4 20
-17 21 -93 3z"/>
<path d="M5913 1993 l-43 -15 0 -154 0 -154 40 0 c53 0 139 40 172 79 63 74
61 199 -3 245 -29 20 -108 20 -166 -1z m121 -27 c65 -27 72 -135 14 -202 -28
-32 -111 -68 -130 -57 -5 2 -8 60 -8 128 0 138 -7 123 65 138 11 3 21 5 23 6
1 0 18 -5 36 -13z"/>
<path d="M5618 1943 l-78 -15 0 -164 c0 -129 3 -164 13 -164 16 0 125 19 150
26 9 3 17 12 17 21 0 13 -8 15 -45 10 -25 -4 -56 -9 -70 -13 -25 -6 -25 -5
-25 54 l0 61 60 12 c49 9 60 15 60 31 0 13 -5 18 -14 15 -7 -3 -34 -9 -60 -12
l-46 -7 0 50 c0 50 0 50 38 56 86 15 92 17 92 37 0 10 -3 18 -7 18 -5 -1 -43
-8 -85 -16z"/>
<path d="M5435 1898 c-2 -7 -6 -40 -7 -73 -3 -66 7 -59 -110 -79 l-38 -7 0 66
c0 58 -2 65 -20 65 -19 0 -20 -7 -20 -166 0 -152 1 -165 18 -162 14 3 17 16
20 80 l3 77 57 11 c31 6 65 14 75 16 15 5 17 -3 17 -70 0 -69 2 -76 20 -76 19
0 20 7 20 165 0 142 -2 165 -15 165 -9 0 -18 -6 -20 -12z"/>
<path d="M5063 1837 c-89 -17 -103 -22 -103 -39 0 -20 17 -20 83 -2 16 5 17
-6 17 -140 0 -139 1 -146 20 -146 18 0 20 8 22 147 l3 147 45 11 c29 7 46 17
48 28 4 21 -2 21 -135 -6z"/>
<path d="M4769 1783 c-10 -2 -31 -51 -60 -144 l-45 -140 -45 123 c-42 115 -47
123 -70 120 -13 -2 -25 -5 -25 -5 -6 -6 -20 -323 -15 -329 3 -4 12 -3 20 1 9
6 15 45 18 135 3 70 9 123 13 119 4 -4 24 -57 45 -116 21 -59 41 -110 46 -112
17 -11 37 29 74 150 42 136 53 142 54 29 2 -108 11 -154 33 -154 17 0 18 6 12
98 -16 229 -17 235 -55 225z"/>
<path d="M4292 1703 c-13 -3 -43 -23 -66 -46 -34 -33 -46 -53 -55 -94 -36
-175 104 -268 226 -151 39 38 56 84 56 153 0 105 -60 157 -161 138z m88 -58
c47 -50 33 -191 -24 -228 -75 -50 -146 0 -146 102 0 117 105 195 170 126z"/>
<path d="M3957 1638 l-37 -10 2 -162 c3 -135 5 -161 18 -161 12 0 16 17 20 75
l5 75 33 3 c44 4 58 -9 77 -74 14 -50 35 -69 49 -46 10 16 -24 117 -45 134
-18 16 -19 19 -5 24 9 4 23 19 31 35 46 88 -25 140 -148 107z m111 -40 c32
-32 -10 -95 -70 -105 l-38 -6 0 55 c0 30 3 58 7 61 11 12 88 8 101 -5z"/>
<path d="M3753 1606 c-35 -7 -65 -14 -67 -17 -2 -2 -1 -77 2 -167 4 -143 7
-163 21 -160 13 3 17 19 19 80 3 76 3 77 32 82 17 3 44 9 60 12 17 3 30 12 30
20 0 12 -11 14 -61 8 l-60 -7 3 54 3 54 60 10 c44 7 61 15 63 28 4 20 -14 21
-105 3z"/>
</g>
</svg>
