<?xml version="1.0" standalone="no"?>
<!DOCTYPE svg PUBLIC "-//W3C//DTD SVG 20010904//EN"
 "http://www.w3.org/TR/2001/REC-SVG-20010904/DTD/svg10.dtd">
<svg version="1.0" xmlns="http://www.w3.org/2000/svg"
 width="1600.000000pt" height="1873.000000pt" viewBox="0 0 1600.000000 1873.000000"
 preserveAspectRatio="xMidYMid meet">

<g transform="translate(0.000000,1873.000000) scale(0.100000,-0.100000)"
fill="#000000" stroke="none">
<path d="M11428 18563 c6 -2 18 -2 25 0 6 3 1 5 -13 5 -14 0 -19 -2 -12 -5z"/>
<path d="M11328 18553 c6 -2 18 -2 25 0 6 3 1 5 -13 5 -14 0 -19 -2 -12 -5z"/>
<path d="M11018 18523 c7 -3 16 -2 19 1 4 3 -2 6 -13 5 -11 0 -14 -3 -6 -6z"/>
<path d="M10898 18513 c7 -3 16 -2 19 1 4 3 -2 6 -13 5 -11 0 -14 -3 -6 -6z"/>
<path d="M10788 18503 c7 -3 16 -2 19 1 4 3 -2 6 -13 5 -11 0 -14 -3 -6 -6z"/>
<path d="M37 18068 c-15 -12 1 -29 136 -143 201 -173 237 -201 267 -209 23 -6
23 -6 5 5 -16 10 -147 120 -359 300 -26 23 -29 29 -17 43 11 13 11 16 -1 16
-8 0 -22 -6 -31 -12z"/>
<path d="M17 17888 c5 -166 25 -666 88 -2108 69 -1581 73 -1686 105 -2420 16
-377 32 -734 35 -795 8 -178 24 -532 35 -800 6 -137 21 -502 35 -810 35 -790
60 -1373 95 -2180 17 -385 39 -902 50 -1150 11 -247 33 -763 50 -1145 16 -382
37 -848 45 -1035 8 -187 24 -549 35 -805 54 -1266 130 -2928 140 -3055 6 -81
27 -173 114 -490 149 -539 254 -909 271 -947 l14 -33 1 50 2 50 18 -60 19 -60
-4 90 c-3 50 -12 281 -20 515 -19 520 -65 1799 -105 2885 -16 446 -46 1240
-65 1765 -36 976 -89 2414 -195 5305 -33 897 -87 2373 -120 3280 -33 908 -76
2062 -94 2565 l-34 915 -51 45 -51 45 0 90 0 90 -78 61 c-42 34 -134 112 -204
173 -69 61 -128 111 -130 111 -3 0 -3 -64 -1 -142z"/>
<path d="M914 17533 c4 -82 13 -344 21 -583 14 -403 27 -765 40 -1120 3 -80
12 -334 20 -565 8 -231 26 -737 40 -1125 14 -388 36 -1024 50 -1415 13 -390
27 -766 30 -835 2 -69 7 -195 10 -280 7 -203 23 -668 30 -845 12 -320 27 -754
60 -1685 19 -542 37 -1046 40 -1120 5 -123 17 -464 45 -1260 30 -867 48 -1347
55 -1530 3 -69 44 -1209 90 -2535 47 -1325 88 -2453 91 -2505 5 -78 8 -91 18
-77 8 10 11 41 9 84 -5 108 -42 1125 -53 1488 -6 182 -17 494 -25 695 -8 201
-22 583 -30 850 -8 267 -24 708 -35 980 -10 272 -21 585 -25 695 -6 227 -13
433 -20 615 -17 413 -43 1142 -50 1415 -3 110 -8 245 -10 300 -3 55 -10 224
-15 375 -6 151 -12 318 -15 370 -2 52 -7 181 -10 285 -12 447 -19 642 -45
1310 -14 361 -19 505 -25 725 -7 239 -23 686 -30 835 -12 253 -25 605 -30 825
-7 286 -21 670 -40 1090 -18 394 -23 549 -30 870 -5 228 -15 502 -30 780 -2
52 -7 145 -10 205 -3 61 -8 153 -10 205 -3 52 -8 196 -10 320 -3 124 -8 302
-11 395 -3 94 -7 208 -8 255 -2 47 -6 114 -9 150 -4 36 -9 135 -12 220 -10
313 -25 708 -30 825 -2 66 -8 198 -11 293 -4 102 -11 172 -17 172 -6 0 -7 -53
-3 -147z"/>
<path d="M12585 16788 c-60 -5 -113 -12 -117 -16 -8 -9 -42 -542 -34 -549 3
-3 29 -2 59 1 l54 7 6 105 c2 58 8 108 11 111 3 3 41 9 84 13 43 4 84 10 90
14 7 4 12 27 12 52 l0 45 -90 -7 -90 -7 0 62 c0 42 4 61 13 62 58 3 179 17
183 22 4 3 9 26 11 52 l6 45 -44 -1 c-24 -1 -93 -6 -154 -11z"/>
<path d="M12070 16751 c-123 -38 -212 -168 -212 -311 -1 -163 74 -252 212
-251 111 0 213 69 263 179 18 38 22 66 22 148 0 94 -2 104 -30 149 -40 64 -97
95 -174 94 -31 0 -67 -4 -81 -8z m108 -107 c55 -38 73 -155 38 -247 -37 -96
-135 -139 -191 -83 -51 51 -57 174 -14 262 35 74 113 106 167 68z"/>
<path d="M11328 16701 c-26 -4 -50 -10 -53 -13 -7 -7 -37 -549 -31 -555 2 -3
29 -2 59 2 l55 7 7 97 c3 53 7 103 8 111 3 21 61 25 80 5 17 -17 27 -49 47
-149 l12 -58 56 7 c32 4 59 9 61 11 11 10 -34 189 -56 221 l-25 36 30 24 c40
30 66 100 59 154 -10 78 -64 110 -184 108 -43 -1 -99 -5 -125 -8z m156 -91
c28 -10 42 -46 32 -85 -8 -32 -61 -65 -103 -65 l-33 0 0 68 c0 40 5 73 12 80
14 14 57 16 92 2z"/>
<path d="M10985 16676 c-102 -9 -130 -14 -133 -26 -4 -22 -29 -544 -26 -548 4
-6 319 20 326 27 4 4 11 28 14 54 l7 48 -112 -7 -111 -7 0 44 c0 74 8 89 45
89 18 0 60 3 94 6 l61 7 0 52 c0 45 -3 53 -17 50 -10 -2 -53 -6 -95 -9 l-78
-4 0 28 c0 15 3 41 6 58 l6 30 99 7 c82 6 99 10 99 24 0 9 3 33 6 54 8 43 24
41 -191 23z"/>
<path d="M10678 16653 c-16 -4 -32 -63 -94 -338 l-18 -80 -23 180 c-31 247
-22 225 -93 225 -32 0 -62 -5 -65 -10 -4 -6 -28 -104 -55 -218 l-48 -207 -7
60 c-4 33 -15 123 -26 200 -10 77 -19 143 -19 147 0 11 -118 10 -125 -1 -3 -5
17 -130 45 -276 27 -147 50 -269 50 -272 0 -2 30 -3 67 -1 l68 3 17 65 c9 36
31 128 50 205 18 77 34 129 36 115 6 -58 43 -317 48 -342 5 -27 8 -28 64 -28
34 0 62 5 68 13 6 6 17 39 26 72 9 33 43 152 76 265 33 113 60 211 60 217 0
13 -64 16 -102 6z"/>
<path d="M9681 16569 c-107 -54 -160 -151 -160 -294 -1 -155 79 -254 207 -256
97 -3 167 26 226 92 62 68 80 119 81 229 0 83 -3 102 -26 145 -15 30 -42 62
-68 80 -37 26 -53 30 -119 33 -70 3 -83 1 -141 -29z m186 -104 c52 -59 56
-190 9 -270 -59 -99 -170 -99 -212 1 -19 45 -18 156 1 202 18 42 51 80 80 93
36 16 98 3 122 -26z"/>
<path d="M9171 16560 c-35 -5 -70 -11 -77 -14 -8 -3 -13 -65 -18 -223 -3 -120
-8 -246 -11 -280 l-4 -63 64 0 64 0 3 103 3 102 61 7 c135 15 214 94 214 215
0 60 -26 112 -69 137 -38 22 -135 29 -230 16z m153 -111 c30 -23 34 -64 12
-108 -17 -32 -54 -51 -101 -51 l-35 0 0 84 c0 72 3 85 18 89 41 11 81 6 106
-14z"/>
<path d="M8577 16520 c-48 -4 -90 -10 -93 -13 -5 -5 -25 -569 -20 -574 2 -3
300 18 324 23 19 4 22 11 22 56 l0 51 -110 -7 -110 -6 0 68 0 69 97 7 c53 4
98 8 99 9 1 1 4 25 6 52 l3 50 -80 -3 c-44 -2 -88 -6 -97 -8 -16 -5 -18 2 -18
54 0 59 0 60 31 66 17 3 59 6 93 6 33 0 66 4 72 8 6 4 13 28 16 55 l6 47 -77
-1 c-42 -1 -115 -5 -164 -9z"/>
<path d="M8240 16391 l0 -108 -46 -7 c-26 -3 -73 -6 -105 -6 l-59 0 0 108 0
107 -59 -3 -59 -4 -6 -36 c-3 -20 -6 -151 -6 -289 l0 -253 60 0 60 0 0 124 0
123 46 7 c26 3 73 6 105 6 l59 0 0 -120 0 -120 59 0 59 0 6 93 c3 50 7 181 10
290 l4 197 -64 0 -64 0 0 -109z"/>
<path d="M7558 16457 l-148 -9 0 -54 0 -54 74 0 74 0 -6 -236 -5 -237 59 8
c32 4 61 9 64 12 3 2 6 108 8 233 l3 229 42 5 c23 3 58 7 77 8 35 3 35 3 38
56 l3 52 -68 -2 c-37 0 -134 -6 -215 -11z"/>
<path d="M6904 16410 c-109 -35 -190 -127 -214 -243 -30 -150 42 -292 165
-327 58 -16 193 -9 268 15 l57 19 0 156 0 157 -72 -4 c-40 -2 -88 -6 -105 -9
-32 -5 -33 -6 -33 -54 l0 -50 45 0 46 0 -3 -62 -3 -63 -65 -3 c-55 -2 -71 1
-100 20 -53 36 -72 80 -68 164 4 89 35 141 103 174 40 19 58 22 131 18 l84 -4
10 35 c15 54 12 68 -12 75 -47 12 -174 5 -234 -14z"/>
<path d="M6500 16390 c-13 -8 -15 -41 -14 -202 l1 -193 -72 140 c-40 77 -85
164 -101 193 l-29 52 -75 -2 -75 -3 -3 -297 -2 -298 29 0 c15 0 43 3 61 7 l33
6 -6 216 -6 216 77 -150 c43 -82 94 -178 113 -212 l34 -63 65 6 c36 4 66 7 67
8 1 1 3 133 5 294 l3 292 -45 0 c-25 0 -52 -5 -60 -10z"/>
<path d="M5943 16363 l-53 -4 0 -297 0 -297 58 3 59 4 6 135 c12 235 9 463 -5
461 -7 -1 -37 -3 -65 -5z"/>
<path d="M5640 16241 c0 -61 -3 -112 -7 -114 -5 -3 -54 -8 -110 -12 l-103 -7
0 111 0 111 -65 0 -65 0 0 -300 0 -300 49 0 c83 0 81 -4 81 135 l0 122 46 7
c26 3 73 6 105 6 l58 0 3 -122 3 -123 58 1 c32 1 60 4 63 6 3 3 8 137 11 297
l6 291 -66 0 -67 0 0 -109z"/>
<path d="M4950 16300 c-65 -22 -114 -71 -130 -129 -24 -91 31 -166 154 -210
35 -12 71 -30 80 -40 23 -26 20 -68 -6 -85 -47 -30 -96 -30 -200 0 -13 4 -19
-6 -27 -46 -6 -29 -9 -55 -6 -60 10 -16 120 -32 178 -26 125 13 209 92 209
196 0 89 -17 106 -197 191 -38 19 -51 30 -53 50 -5 43 30 64 102 62 33 0 69
-3 80 -5 14 -2 21 7 32 42 18 60 19 58 -23 69 -57 16 -131 13 -193 -9z"/>
<path d="M4449 16283 l-55 -4 -82 -297 c-46 -163 -82 -303 -82 -311 0 -8 6
-11 16 -7 9 3 37 6 64 6 l48 0 17 73 c10 39 20 75 24 79 3 4 42 10 86 14 l80
6 23 -76 22 -76 64 0 c36 0 67 4 70 8 3 5 -19 85 -48 178 -29 93 -70 224 -91
292 l-38 122 -31 -2 c-17 -1 -56 -3 -87 -5z m61 -221 c16 -56 30 -105 30 -110
0 -9 -110 -24 -118 -16 -2 1 8 55 24 118 15 64 28 115 30 113 2 -2 17 -49 34
-105z"/>
<path d="M3873 16253 l-83 -4 0 -198 c0 -109 3 -246 7 -306 l6 -107 86 6 c47
3 130 8 184 12 l97 6 0 56 0 55 -120 -6 -120 -7 0 75 0 75 89 0 c119 0 121 1
121 64 l0 51 -110 -3 -110 -4 0 59 0 60 68 6 c37 4 88 7 115 7 l47 0 0 55 0
55 -97 -2 c-54 -1 -135 -4 -180 -5z"/>
<path d="M3362 16223 l-23 -5 7 -301 c3 -166 7 -303 8 -303 5 -5 353 20 359
26 4 4 5 30 1 59 l-7 51 -113 -7 -114 -6 0 125 c0 69 -3 180 -7 246 l-6 122
-41 -1 c-23 -1 -51 -4 -64 -6z"/>
<path d="M3147 16213 l-49 -4 6 -147 c4 -81 9 -176 12 -212 l4 -65 -57 110
c-32 61 -84 154 -117 208 l-58 97 -67 0 c-36 0 -72 -4 -79 -9 -11 -6 -12 -65
-6 -310 l7 -301 48 0 c76 0 79 3 74 73 -3 34 -7 136 -9 227 l-5 165 57 -110
c31 -61 86 -161 122 -223 l65 -113 67 3 c37 2 69 6 71 8 2 3 1 140 -2 305 -5
257 -8 300 -21 301 -8 0 -37 -1 -63 -3z"/>
<path d="M2527 16183 l-49 -4 3 -212 c1 -133 -2 -222 -9 -238 -25 -61 -101
-87 -151 -53 -41 29 -49 68 -57 288 l-7 209 -65 -6 c-36 -4 -65 -8 -66 -9 -1
-2 1 -97 5 -213 7 -241 17 -283 79 -339 107 -97 310 -61 377 67 27 52 34 138
27 330 -6 163 -9 187 -23 185 -9 -1 -38 -3 -64 -5z"/>
<path d="M10759 15627 c-63 -24 -104 -55 -127 -95 -38 -69 -23 -163 31 -194
12 -7 51 -24 86 -38 72 -28 87 -45 77 -84 -11 -44 -65 -61 -145 -47 -35 7 -68
8 -72 4 -4 -4 -11 -27 -15 -50 -6 -40 -5 -43 22 -54 17 -6 64 -9 111 -7 69 4
89 9 130 34 62 38 93 92 93 161 0 71 -35 112 -130 148 -78 30 -95 45 -86 79 8
33 53 49 127 45 l62 -4 13 45 c7 25 10 48 5 53 -15 15 -144 18 -182 4z"/>
<path d="M10340 15594 c-80 -7 -155 -13 -167 -13 -21 -1 -23 -6 -23 -55 l0
-55 71 6 71 6 -6 -79 c-3 -43 -8 -146 -12 -228 l-6 -149 56 5 c31 3 58 7 60 9
3 2 9 103 15 223 5 120 13 221 16 224 3 3 35 8 73 11 l67 6 3 53 3 52 -38 -1
c-21 -1 -103 -7 -183 -15z"/>
<path d="M9822 15560 c-99 -14 -99 -14 -106 -73 -3 -29 -8 -155 -12 -281 l-7
-229 39 6 c21 4 49 7 62 7 21 0 22 4 22 84 0 46 3 98 6 115 6 27 11 31 40 31
40 0 61 -19 73 -68 5 -20 15 -62 23 -92 l13 -55 55 4 c30 1 57 5 59 7 7 6 -30
178 -44 205 -8 14 -21 31 -29 38 -13 11 -10 17 23 49 82 78 75 194 -14 240
-31 16 -132 22 -203 12z m132 -106 c9 -8 16 -32 16 -53 0 -50 -33 -82 -94 -88
l-46 -6 0 50 c0 28 3 65 6 82 6 30 9 31 55 31 30 0 53 -6 63 -16z"/>
<path d="M9317 15516 c-134 -48 -215 -183 -205 -340 6 -83 30 -139 82 -184 82
-72 243 -57 334 31 94 89 126 261 73 381 -45 103 -171 152 -284 112z m101 -97
c52 -18 77 -70 77 -159 0 -93 -28 -160 -77 -190 -90 -55 -178 13 -178 138 0
105 55 205 118 215 15 2 27 5 28 6 1 0 15 -4 32 -10z"/>
<path d="M8910 15386 c0 -58 -4 -107 -9 -110 -4 -3 -52 -8 -106 -12 l-98 -7 8
108 7 108 -61 -5 c-33 -2 -62 -6 -64 -9 -3 -2 -7 -132 -11 -288 l-6 -283 57 7
c32 4 59 8 60 9 2 1 6 55 9 119 8 134 -4 122 127 132 l78 6 -3 -121 -3 -120
50 0 c28 0 55 4 61 8 8 5 14 85 18 252 4 135 9 260 12 278 l5 32 -66 0 -65 0
0 -104z"/>
<path d="M8259 15435 c-65 -21 -125 -88 -134 -148 -13 -86 39 -149 149 -181
86 -25 111 -75 59 -116 -24 -19 -37 -21 -98 -18 -38 3 -77 8 -86 12 -14 6 -19
-2 -29 -44 -9 -37 -9 -55 -2 -62 20 -20 154 -22 217 -3 103 29 166 120 149
210 -12 64 -58 103 -159 135 -51 16 -75 37 -75 66 0 41 40 57 125 52 l74 -5
11 49 c7 27 10 52 6 55 -14 14 -162 12 -207 -2z"/>
<path d="M7664 15397 l-121 -9 -6 -172 c-4 -94 -7 -224 -7 -288 l0 -118 33 1
c17 0 95 6 172 12 l140 12 3 54 3 54 -110 -8 -111 -7 0 65 c0 72 4 77 69 77
21 0 59 3 85 6 l46 7 0 53 c0 38 -4 52 -12 50 -7 -3 -52 -7 -100 -10 l-88 -6
0 59 0 59 108 8 107 9 3 53 3 52 -48 -2 c-26 0 -102 -5 -169 -11z"/>
<path d="M7097 15360 c-27 -5 -52 -12 -55 -15 -4 -4 -8 -135 -10 -292 l-4
-286 95 6 c213 12 317 80 317 205 0 47 -33 101 -74 121 l-28 13 27 18 c92 60
85 186 -11 226 -37 15 -176 17 -257 4z m167 -90 c83 -31 31 -130 -69 -130
l-35 0 0 64 c0 59 2 65 23 69 40 8 55 7 81 -3z m1 -234 c23 -10 37 -24 41 -42
15 -59 -28 -108 -103 -120 l-43 -7 0 86 c0 73 3 86 18 90 32 9 53 7 87 -7z"/>
<path d="M6803 15333 c-10 -3 -13 -50 -13 -186 0 -199 -7 -241 -46 -278 -34
-32 -95 -33 -126 -1 -22 22 -23 30 -26 237 l-3 215 -27 0 c-15 0 -44 -3 -65
-7 l-38 -6 3 -216 c3 -201 5 -219 25 -258 33 -61 75 -87 150 -91 127 -8 214
42 253 146 19 49 23 86 27 255 l6 197 -54 -1 c-30 0 -60 -3 -66 -6z"/>
<path d="M6200 15295 c-91 -7 -182 -13 -202 -14 l-38 -1 0 -56 0 -56 75 4 75
3 0 -239 0 -239 38 7 c20 3 47 6 59 6 l23 0 2 238 3 237 55 3 c99 4 100 5 100
67 0 38 -4 55 -12 54 -7 -1 -87 -8 -178 -14z"/>
<path d="M5778 15263 c-16 -4 -18 -22 -18 -199 0 -209 -7 -247 -51 -278 -13
-9 -40 -16 -60 -16 -29 0 -43 7 -63 30 -34 40 -40 92 -34 286 l5 164 -32 0
c-18 0 -47 -3 -64 -6 l-32 -7 3 -216 c3 -202 4 -219 26 -263 29 -58 74 -88
145 -95 112 -11 219 45 261 137 19 40 21 68 24 258 l4 212 -49 -1 c-26 -1 -56
-3 -65 -6z"/>
<path d="M4974 15204 c-130 -46 -214 -214 -185 -366 20 -104 75 -177 155 -208
16 -6 55 -11 87 -11 179 -3 299 125 299 321 0 135 -50 226 -146 266 -43 18
-157 17 -210 -2z m161 -108 c40 -26 60 -84 60 -171 0 -69 -4 -86 -27 -126 -67
-114 -204 -94 -237 35 -45 181 81 343 204 262z"/>
<path d="M4671 15191 l-64 -6 -43 -110 c-24 -60 -44 -115 -44 -122 -1 -39 -22
-7 -66 98 l-49 119 -60 0 c-33 0 -66 -4 -74 -9 -10 -7 7 -45 78 -174 l91 -165
0 -121 0 -121 28 0 c15 0 44 3 65 6 l37 7 0 126 0 127 85 161 c94 178 101 194
89 191 -5 -1 -38 -4 -73 -7z"/>
<path d="M8355 13741 c-152 -19 -210 -46 -511 -236 -137 -87 -379 -240 -539
-340 -159 -100 -395 -249 -523 -331 -127 -82 -278 -178 -334 -214 -213 -135
-347 -303 -418 -525 -31 -98 -39 -293 -16 -397 67 -300 327 -518 618 -518 37
0 68 -4 68 -9 0 -5 -80 -60 -177 -122 -262 -167 -361 -272 -448 -476 -138
-321 -54 -690 198 -866 128 -90 248 -123 410 -114 112 6 204 30 302 79 33 17
436 281 895 587 909 605 934 623 1038 784 86 131 142 313 142 457 0 262 -148
499 -373 598 -61 27 -181 52 -249 52 -66 0 -70 -3 147 135 194 124 292 214
367 335 190 306 183 660 -18 906 -127 155 -362 242 -579 215z m-741 -1760
c253 -136 461 -252 462 -257 2 -5 -106 -90 -239 -189 -438 -327 -707 -525
-713 -525 -7 0 3 796 12 1058 3 89 9 162 13 162 3 0 213 -112 465 -249z"/>
<path d="M9950 9426 c-102 -30 -148 -56 -219 -122 -42 -38 -71 -77 -93 -123
-29 -59 -33 -75 -33 -152 0 -78 3 -90 30 -135 50 -81 106 -111 309 -166 29 -7
64 -27 84 -45 32 -30 34 -36 29 -79 -7 -61 -52 -109 -125 -130 -66 -19 -190
-19 -262 0 -30 8 -56 14 -56 13 -4 -4 -54 -207 -54 -216 0 -15 94 -31 186 -31
238 0 454 116 530 283 39 88 45 202 14 275 -40 93 -91 123 -319 192 -116 35
-148 87 -98 160 30 46 75 70 149 80 58 9 159 0 202 -16 11 -4 22 17 45 94 17
54 31 104 31 109 0 18 -85 33 -182 32 -66 0 -114 -7 -168 -23z"/>
<path d="M9077 9290 c-218 -32 -404 -60 -412 -64 -12 -4 -15 -26 -15 -111 0
-93 2 -105 18 -105 9 0 73 9 142 19 69 10 127 17 130 16 3 -2 0 -153 -7 -337
-6 -183 -12 -393 -12 -466 -1 -132 -1 -132 22 -128 12 3 65 12 119 22 l96 16
6 42 c3 22 11 229 17 458 7 230 15 422 18 427 4 5 62 17 131 26 181 23 170 14
170 140 0 78 -3 105 -12 104 -7 -1 -192 -27 -411 -59z"/>
<path d="M8165 9164 c-230 -33 -390 -66 -407 -82 -7 -7 -33 -1141 -26 -1148 3
-2 58 4 124 14 l119 18 7 228 c4 126 10 231 12 234 3 3 42 5 86 6 80 1 82 0
110 -31 16 -18 33 -49 38 -70 5 -21 23 -96 40 -167 17 -71 35 -133 40 -138 9
-9 231 20 245 32 10 9 -68 333 -95 393 -21 45 -67 97 -100 110 -10 4 -8 9 7
18 52 33 118 107 148 168 29 59 32 74 31 151 0 134 -46 207 -153 245 -44 15
-174 26 -226 19z m78 -216 c53 -27 72 -120 38 -193 -34 -76 -103 -113 -240
-130 l-54 -7 6 83 c4 46 7 119 7 161 l0 77 53 10 c28 6 61 13 72 15 27 5 96
-4 118 -16z"/>
<path d="M6976 9010 c-282 -75 -476 -332 -493 -650 -19 -370 193 -603 510
-560 356 49 577 319 577 706 0 179 -39 301 -126 394 -109 116 -287 158 -468
110z m206 -236 c31 -21 53 -50 78 -98 l35 -69 -1 -146 c0 -124 -4 -155 -22
-205 -46 -125 -112 -200 -200 -230 -186 -64 -317 77 -316 339 1 207 79 367
207 426 66 30 163 22 219 -17z"/>
<path d="M6158 8885 c-47 -7 -91 -16 -97 -19 -7 -5 -11 -80 -11 -227 0 -167
-3 -221 -12 -224 -20 -7 -365 -55 -393 -55 l-25 0 0 225 0 225 -37 -5 c-21 -3
-81 -12 -133 -18 l-95 -13 -3 -597 c-2 -474 0 -597 10 -597 7 0 66 7 131 17
l117 16 1 96 c1 53 1 165 -1 248 -1 121 1 154 12 158 17 6 375 55 406 55 l23
0 -1 -242 c-1 -134 2 -244 7 -245 4 -1 60 5 123 15 l114 17 8 35 c4 19 7 286
8 593 l0 557 -32 -1 c-18 -1 -72 -7 -120 -14z"/>
<path d="M4775 8715 c-174 -38 -300 -127 -362 -253 -24 -50 -27 -69 -28 -152
0 -110 16 -152 82 -211 52 -47 109 -73 228 -105 173 -46 212 -77 202 -161 -10
-91 -106 -143 -261 -143 -45 0 -110 7 -145 15 -35 9 -66 13 -68 11 -4 -3 -53
-210 -53 -221 0 -13 126 -30 225 -30 190 1 343 54 452 158 131 124 163 331 71
458 -51 70 -103 96 -329 163 -104 31 -139 59 -139 111 0 52 27 92 80 118 38
19 61 22 155 22 61 0 126 -3 146 -8 l36 -7 27 106 c15 59 23 111 19 115 -29
29 -235 37 -338 14z"/>
<path d="M11760 8054 c-36 -7 -108 -35 -160 -60 -77 -38 -110 -62 -176 -129
-68 -67 -90 -97 -127 -176 -55 -113 -77 -208 -77 -326 0 -102 19 -185 56 -249
32 -54 73 -90 144 -123 49 -23 67 -26 165 -26 122 0 207 18 314 66 l63 29 -6
57 c-4 32 -10 72 -13 90 l-5 32 -37 -18 c-144 -74 -315 -69 -388 10 -72 79
-81 263 -18 404 34 77 114 159 194 197 62 30 73 32 179 33 l112 0 25 81 c31
100 31 110 3 118 -40 10 -180 5 -248 -10z"/>
<path d="M10968 7901 c-54 -10 -99 -19 -101 -22 -5 -6 -60 -1059 -56 -1063 2
-2 52 5 111 17 107 20 108 20 112 51 3 17 14 216 26 441 11 226 23 452 27 503
5 75 3 92 -8 91 -8 0 -58 -9 -111 -18z"/>
<path d="M10430 7809 c-124 -21 -255 -43 -292 -50 l-67 -11 -5 -51 c-3 -29
-10 -171 -16 -317 -6 -146 -15 -364 -21 -484 -5 -120 -7 -221 -5 -224 6 -5
209 29 217 37 4 3 12 100 17 214 6 115 13 211 16 214 2 3 83 19 178 37 l173
31 6 30 c6 29 12 165 7 165 -2 0 -75 -14 -163 -30 -88 -16 -168 -30 -177 -30
-15 0 -18 9 -18 58 0 31 3 87 6 123 l7 65 191 33 c105 18 191 33 192 34 1 1 4
46 8 100 7 90 6 97 -11 96 -10 -1 -119 -19 -243 -40z"/>
<path d="M9810 7703 c-41 -7 -178 -29 -305 -49 -126 -20 -233 -39 -237 -43 -3
-3 -13 -206 -22 -451 -9 -245 -18 -489 -21 -544 -5 -98 -5 -98 17 -93 13 3 64
13 115 22 l91 17 6 71 c3 40 8 137 11 216 3 80 7 146 8 148 2 1 84 17 183 35
l179 33 8 94 c4 52 6 96 4 98 -3 2 -80 -10 -172 -27 -92 -16 -174 -30 -183
-30 -13 0 -14 18 -10 120 3 66 8 123 11 126 3 3 91 20 196 37 l190 31 6 41 c4
22 5 67 3 100 l-3 61 -75 -13z"/>
<path d="M8637 7512 l-147 -25 -26 -86 c-14 -47 -44 -144 -66 -216 -61 -193
-256 -850 -254 -852 3 -3 230 38 234 42 2 2 21 67 43 146 21 78 44 146 50 150
14 8 288 53 293 48 2 -2 19 -62 38 -134 25 -94 38 -130 49 -128 75 7 229 38
229 45 0 9 -169 628 -244 897 -19 68 -39 127 -43 131 -4 4 -74 -5 -156 -18z
m3 -219 c0 -10 21 -100 46 -201 26 -100 44 -185 41 -189 -8 -8 -210 -42 -218
-37 -4 2 12 70 36 151 23 82 50 181 60 221 16 66 35 96 35 55z"/>
<path d="M7606 7350 c-116 -20 -274 -56 -293 -68 -8 -5 -13 -171 -18 -549 -7
-505 -7 -543 9 -543 9 0 61 7 115 16 l99 17 7 218 c5 158 10 219 19 222 7 3
37 8 67 11 103 12 129 -20 180 -225 21 -84 42 -156 46 -160 8 -8 230 25 240
34 2 2 -1 17 -7 33 -6 16 -24 83 -40 149 -47 196 -81 267 -135 281 -14 3 -25
9 -24 13 0 3 24 24 52 46 56 44 111 125 128 190 6 22 9 69 7 105 -9 117 -64
188 -170 216 -69 18 -148 16 -282 -6z m169 -194 c88 -58 56 -213 -54 -271 -30
-15 -147 -44 -179 -45 -11 0 -13 28 -7 153 4 83 9 154 11 156 2 2 27 10 56 17
66 17 139 12 173 -10z"/>
<path d="M7080 7265 c-41 -7 -212 -34 -380 -60 -168 -25 -315 -48 -327 -51
-22 -4 -23 -9 -23 -109 0 -58 3 -105 8 -105 4 0 61 9 127 20 66 11 128 20 138
20 17 0 17 -23 11 -450 l-7 -450 24 1 c13 0 67 8 119 17 l95 17 7 449 c5 303
11 451 18 456 6 4 66 15 133 25 67 9 128 20 135 22 13 6 18 214 5 212 -5 -1
-42 -7 -83 -14z"/>
<path d="M5558 7031 c-169 -25 -313 -52 -319 -58 -8 -8 -10 -162 -8 -561 2
-303 6 -553 9 -556 3 -3 114 12 245 34 132 21 278 44 325 51 124 17 120 13
120 124 0 86 -2 95 -18 95 -11 0 -107 -13 -215 -30 -108 -16 -201 -30 -207
-30 -6 0 -10 50 -10 133 l0 133 183 28 c100 15 190 29 200 32 15 5 17 19 17
105 l0 100 -32 -6 c-55 -9 -353 -55 -360 -55 -5 0 -8 53 -8 119 l0 119 33 6
c17 3 109 17 202 31 94 14 176 27 183 30 8 3 12 33 12 105 0 97 -1 100 -22 99
-13 0 -161 -22 -330 -48z"/>
<path d="M4980 6943 c-14 -2 -149 -22 -300 -43 -151 -22 -286 -43 -300 -48
l-25 -7 3 -560 c2 -308 7 -563 10 -566 4 -3 140 15 302 41 162 26 316 50 343
54 l47 7 0 105 c0 103 0 104 -22 99 -13 -2 -102 -16 -198 -30 -96 -14 -187
-28 -202 -31 l-28 -6 0 136 c0 132 1 136 23 141 26 6 353 55 367 55 6 0 10 43
10 103 l0 103 -191 -29 c-105 -16 -197 -26 -205 -23 -11 4 -14 29 -14 115 0
60 4 112 9 115 8 5 397 66 421 66 6 0 10 41 10 105 0 114 4 108 -60 98z"/>
<path d="M3605 6745 c-120 -23 -233 -50 -241 -58 -4 -4 15 -1119 19 -1123 2
-2 131 17 215 31 l33 6 -7 223 -7 223 39 6 c76 13 130 8 158 -14 37 -29 49
-57 91 -203 19 -71 42 -141 50 -156 l14 -27 123 19 c67 10 124 20 125 22 2 2
-2 16 -8 32 -6 16 -30 95 -54 176 -58 196 -86 243 -168 282 -9 4 -8 8 3 12 8
4 42 34 76 68 81 82 108 149 102 256 -7 118 -58 194 -155 230 -76 28 -247 26
-408 -5z m239 -179 c53 -22 76 -60 76 -126 0 -107 -71 -172 -210 -195 -47 -7
-86 -12 -86 -12 -1 1 -4 73 -6 159 l-6 158 37 9 c65 17 76 19 119 20 23 0 57
-5 76 -13z"/>
<path d="M2811 6629 c-184 -27 -336 -51 -338 -53 -4 -4 25 -1137 29 -1142 4
-3 184 21 227 32 l24 5 -6 230 c-4 126 -5 229 -2 229 6 0 331 48 373 55 l32 6
0 99 c0 96 -1 100 -22 100 -11 0 -102 -12 -200 -26 -98 -15 -181 -24 -184 -21
-3 3 -7 63 -7 133 l-2 128 215 32 c118 18 216 33 218 33 1 1 2 41 2 90 0 87
-5 122 -19 120 -3 -1 -156 -23 -340 -50z"/>
<path d="M11015 6319 c-132 -26 -292 -58 -355 -71 l-115 -23 -3 -97 c-1 -54
-1 -98 2 -98 2 0 56 11 120 25 64 14 121 25 127 25 8 0 9 -28 5 -92 -16 -245
-38 -750 -33 -754 5 -5 206 33 214 40 1 1 11 179 23 396 11 217 21 408 23 424
2 30 2 30 131 58 71 15 133 33 138 40 4 7 8 50 8 96 0 79 -1 82 -22 81 -13 -1
-131 -23 -263 -50z"/>
<path d="M10311 6180 c-51 -11 -95 -21 -97 -22 -7 -8 -25 -433 -24 -573 1 -82
1 -154 0 -160 0 -5 -18 31 -39 80 -49 116 -81 180 -203 403 -55 100 -103 182
-108 182 -11 0 -253 -50 -256 -53 -3 -4 -43 -1061 -40 -1064 4 -4 185 35 196
42 4 2 12 165 19 362 16 465 12 428 36 373 51 -121 311 -619 336 -645 8 -8
224 26 234 37 2 2 12 212 24 468 11 256 23 493 26 528 3 34 2 62 -2 61 -4 0
-50 -9 -102 -19z"/>
<path d="M9252 5980 c-51 -9 -95 -20 -99 -23 -3 -4 -12 -186 -19 -404 -7 -219
-15 -458 -19 -530 -6 -113 -4 -133 8 -133 16 0 209 39 213 43 2 2 21 492 29
772 3 105 8 214 11 243 6 61 15 59 -124 32z"/>
<path d="M8640 5869 c-127 -13 -362 -69 -386 -93 -11 -11 -42 -1051 -32 -1062
3 -2 52 6 110 17 l105 21 7 67 c3 36 6 130 6 208 0 84 4 144 10 148 5 3 41 9
78 12 113 9 123 -2 171 -206 18 -74 36 -142 41 -151 9 -17 14 -17 102 1 51 10
102 21 113 24 20 4 20 8 -21 172 -47 192 -70 246 -121 275 l-35 21 28 21 c54
38 97 91 127 155 25 52 30 77 30 135 1 185 -102 257 -333 235z m46 -194 c35
-14 64 -61 64 -102 0 -101 -89 -189 -210 -208 -25 -3 -54 -9 -64 -12 -18 -5
-19 0 -13 147 3 83 8 154 10 157 10 10 103 31 140 32 21 1 53 -6 73 -14z"/>
<path d="M7615 5690 c-91 -20 -264 -66 -270 -72 -4 -4 -23 -1072 -20 -1076 3
-3 94 12 178 30 l47 10 0 81 c0 45 3 132 6 193 l7 111 66 12 c298 53 465 234
449 487 -6 105 -52 179 -136 220 -56 27 -212 29 -327 4z m175 -185 c69 -36 81
-156 24 -237 -37 -53 -117 -95 -196 -104 l-58 -7 1 69 c1 38 4 114 8 169 l6
99 45 12 c64 17 136 17 170 -1z"/>
<path d="M7075 5589 c-27 -5 -167 -30 -310 -55 -143 -25 -260 -46 -261 -47 -1
-1 -5 -248 -9 -549 -6 -486 -5 -548 9 -548 8 0 77 12 153 26 76 14 210 39 298
55 88 16 170 31 183 34 21 5 22 10 22 100 0 84 -2 95 -17 95 -10 0 -106 -16
-213 -35 -107 -19 -196 -35 -197 -35 -2 0 -3 58 -3 129 0 115 2 130 18 135 17
5 355 66 366 66 3 0 6 45 6 100 0 55 -3 100 -7 100 -5 0 -90 -15 -190 -34
-101 -18 -185 -30 -188 -28 -8 9 -5 206 3 220 7 9 362 82 405 82 4 0 7 45 7
100 0 74 -3 100 -12 99 -7 -1 -35 -5 -63 -10z"/>
<path d="M6150 5431 l-95 -16 -5 -380 c-5 -363 -6 -382 -27 -435 -36 -89 -87
-134 -167 -149 -64 -12 -107 1 -145 44 -52 59 -54 80 -58 481 l-4 370 -121
-20 -120 -19 5 -376 c5 -399 9 -440 58 -536 65 -127 208 -179 389 -141 161 34
298 136 360 268 60 130 63 150 68 556 l4 372 -24 -1 c-12 -1 -66 -9 -118 -18z"/>
<path d="M4693 5191 c-56 -9 -105 -19 -108 -22 -8 -9 8 -1109 17 -1109 13 0
546 89 606 101 l52 10 0 103 0 103 -187 -33 c-104 -18 -200 -33 -215 -34 l-28
0 0 450 c0 422 -1 450 -17 449 -10 -1 -64 -9 -120 -18z"/>
<path d="M3950 5080 c-79 -11 -240 -45 -309 -66 l-51 -15 5 -297 c3 -163 8
-411 11 -551 l6 -254 82 6 c44 3 134 15 198 26 280 49 422 129 495 280 37 76
39 194 5 259 -27 50 -90 99 -149 114 l-43 10 38 28 c114 83 166 206 131 311
-34 101 -120 152 -264 155 -49 2 -119 -1 -155 -6z m130 -195 c36 -19 50 -43
50 -90 0 -96 -98 -170 -235 -177 l-50 -3 0 130 0 130 45 12 c65 17 156 16 190
-2z m-27 -442 c24 -3 52 -19 73 -38 30 -29 34 -38 34 -84 0 -59 -10 -82 -53
-129 -37 -38 -111 -68 -196 -78 l-61 -7 0 161 0 161 38 6 c20 4 44 8 52 10 27
5 75 5 113 -2z"/>
<path d="M10641 3059 c-35 -10 -65 -19 -66 -21 -7 -9 -15 -308 -8 -308 4 0 44
11 88 23 73 21 80 25 83 50 2 15 2 27 0 27 -2 0 -27 -7 -55 -14 -29 -8 -55
-11 -58 -6 -3 4 -2 22 1 38 5 27 12 32 55 42 44 11 49 15 49 41 l0 28 -47 -14
c-27 -8 -49 -15 -50 -15 -2 0 -3 15 -3 34 0 33 2 35 58 53 45 14 58 23 60 41
4 27 -16 28 -107 1z"/>
<path d="M10465 3013 c-112 -25 -179 -90 -199 -192 -8 -42 8 -102 33 -125 27
-24 97 -23 158 4 l51 21 4 82 c3 45 5 83 4 84 -1 1 -24 -4 -51 -11 -42 -10
-50 -16 -53 -38 -3 -22 0 -26 17 -21 18 5 21 1 21 -30 0 -39 -2 -41 -43 -51
-40 -9 -77 30 -77 81 0 71 54 130 129 140 29 4 41 11 45 26 5 21 0 38 -12 36
-4 -1 -16 -3 -27 -6z"/>
<path d="M10073 2911 l-50 -15 -7 -89 c-3 -50 -6 -118 -6 -153 l0 -62 28 7
c24 7 28 13 33 59 9 69 15 82 38 82 23 0 36 -20 45 -72 7 -39 14 -42 53 -32
19 5 21 11 16 38 -3 17 -14 49 -24 71 -10 21 -15 42 -11 45 18 12 42 56 42 77
0 13 -9 32 -20 43 -24 24 -60 24 -137 1z m85 -47 c14 -25 3 -53 -29 -69 -42
-22 -49 -19 -49 25 0 33 4 42 23 50 33 13 45 12 55 -6z"/>
<path d="M9820 2858 c-56 -16 -91 -48 -117 -106 -34 -73 -29 -154 11 -189 63
-54 181 -10 225 82 42 90 23 192 -40 214 -36 12 -32 13 -79 -1z m55 -68 c31
-35 19 -136 -21 -171 -55 -48 -104 -21 -104 55 0 53 12 88 40 116 25 25 62 26
85 0z"/>
<path d="M9535 2792 l-70 -17 -8 -148 c-5 -82 -6 -151 -3 -154 3 -4 45 2 93
13 84 18 88 20 91 48 3 26 1 28 -20 22 -13 -3 -40 -9 -60 -12 -38 -7 -38 -7
-38 29 0 35 1 36 55 48 51 11 55 14 55 42 0 22 -4 28 -16 23 -9 -3 -33 -9 -55
-12 -41 -7 -45 -2 -33 43 4 15 17 23 42 28 64 11 72 15 72 41 0 29 -8 29 -105
6z"/>
<path d="M9285 2735 c-125 -44 -186 -235 -97 -305 33 -27 93 -24 165 8 l47 21
0 85 0 84 -37 -10 c-57 -15 -73 -26 -73 -49 0 -18 4 -20 25 -15 22 6 25 3 25
-23 0 -79 -106 -83 -126 -5 -9 37 4 90 31 122 24 29 105 59 124 47 9 -5 21 17
21 41 0 18 -51 18 -105 -1z"/>
<path d="M8973 2653 c-18 -4 -23 -11 -23 -37 0 -78 -9 -95 -59 -109 -25 -8
-50 -12 -55 -9 -5 3 -6 29 -2 58 6 51 5 54 -16 54 -13 0 -28 -4 -34 -8 -7 -4
-14 -66 -18 -159 l-7 -153 23 0 c39 0 47 13 50 80 3 69 -3 63 81 84 l27 6 0
-66 0 -66 27 7 c16 4 30 9 33 11 8 9 12 314 4 313 -5 -1 -19 -4 -31 -6z"/>
<path d="M8648 2576 c-100 -27 -158 -104 -158 -210 0 -50 4 -61 29 -87 25 -24
37 -29 81 -29 28 0 66 6 84 14 28 12 33 18 29 40 -4 21 -8 24 -24 15 -32 -17
-87 -14 -109 6 -15 13 -20 31 -20 64 0 79 41 128 118 138 30 4 42 11 46 26 3
12 0 25 -7 29 -15 9 -11 10 -69 -6z"/>
<path d="M8285 2496 c-90 -40 -139 -165 -104 -265 12 -34 53 -61 91 -61 33 1
99 33 125 61 51 56 68 159 38 224 -25 52 -87 69 -150 41z m79 -68 c32 -46 11
-164 -32 -187 -56 -30 -94 3 -94 78 1 76 35 131 83 131 17 0 34 -8 43 -22z"/>
<path d="M8066 2437 c-15 -11 -17 -26 -14 -110 2 -53 1 -97 -3 -97 -3 0 -15
21 -28 48 -36 75 -81 141 -94 137 -7 -2 -24 -6 -39 -9 l-28 -6 0 -159 0 -159
28 7 27 7 5 115 5 114 55 -100 c52 -93 58 -100 84 -98 16 1 33 6 37 10 4 4 9
77 11 161 3 132 1 152 -13 152 -8 0 -23 -6 -33 -13z"/>
<path d="M7730 2374 c-36 -8 -75 -16 -87 -19 -23 -5 -23 -8 -23 -166 0 -148 1
-160 18 -155 17 6 160 36 168 36 2 0 4 12 4 26 0 26 -1 26 -52 20 -28 -4 -56
-8 -62 -9 -15 -3 -9 65 6 74 6 4 31 10 55 14 40 6 43 8 43 36 0 24 -4 29 -17
25 -10 -3 -35 -8 -55 -12 -38 -6 -38 -6 -38 29 0 34 1 35 58 48 51 13 57 17
60 42 2 15 0 27 -5 26 -4 -1 -37 -7 -73 -15z"/>
<path d="M7368 2293 l-58 -15 0 -159 c0 -133 2 -159 15 -159 11 0 15 18 17 77
3 85 -6 75 91 97 15 4 27 13 27 22 0 10 -6 14 -14 11 -7 -3 -35 -9 -61 -12
l-47 -8 7 49 c4 27 9 52 11 55 2 3 28 11 59 18 35 8 55 18 55 27 0 17 -27 17
-102 -3z"/>
<path d="M7113 2240 c-70 -16 -116 -70 -132 -154 -29 -157 102 -241 206 -134
86 89 84 248 -3 284 -19 8 -35 14 -36 13 -2 -1 -18 -4 -35 -9z m78 -62 c16
-26 19 -46 17 -95 -4 -72 -25 -108 -77 -135 -78 -39 -134 38 -110 151 15 71
54 111 108 111 36 0 44 -4 62 -32z"/>
<path d="M6746 2083 l-65 -97 -3 82 c-2 67 -5 80 -17 73 -11 -7 -15 -46 -19
-165 -5 -154 -4 -156 17 -156 19 0 21 5 21 63 0 41 5 70 16 86 l16 22 49 -68
c54 -74 57 -77 78 -64 10 7 0 26 -44 85 l-57 76 51 74 c28 41 51 77 51 80 0 3
-7 6 -15 6 -8 0 -44 -44 -79 -97z"/>
<path d="M6480 2109 c-63 -25 -95 -90 -66 -133 9 -14 37 -31 66 -41 27 -9 55
-25 60 -35 26 -48 -43 -107 -110 -93 -28 5 -32 3 -28 -13 8 -42 110 -24 152
27 18 21 26 42 26 68 0 43 -19 66 -65 76 -72 17 -92 52 -56 96 13 16 30 23 62
25 31 1 45 6 47 18 3 12 -4 16 -30 15 -18 0 -44 -5 -58 -10z"/>
<path d="M6275 2069 c-96 -21 -85 1 -85 -179 0 -182 -10 -167 100 -146 49 9
66 16 68 30 3 16 0 18 -22 12 -14 -3 -47 -9 -72 -13 l-45 -6 3 58 c3 64 -5 58
91 79 15 4 27 13 27 22 0 16 -21 16 -98 -3 -22 -5 -23 -3 -20 48 l3 53 40 8
c76 15 85 18 85 33 0 17 -15 17 -75 4z"/>
<path d="M5918 1993 l-48 -14 0 -155 0 -154 28 0 c42 0 116 24 152 50 63 45
96 173 61 238 -26 49 -104 63 -193 35z m143 -39 c10 -9 21 -32 25 -50 18 -95
-41 -177 -143 -199 l-33 -7 0 131 0 130 33 10 c42 13 95 6 118 -15z"/>
<path d="M5600 1937 l-55 -12 -3 -162 c-1 -90 1 -163 5 -163 5 0 45 7 91 16
59 12 82 21 82 32 0 15 -17 14 -107 -4 l-33 -6 0 60 c0 66 0 66 74 77 35 6 46
12 46 25 0 16 -5 17 -37 9 -77 -18 -83 -15 -83 40 0 54 -6 50 93 67 22 4 37
12 37 20 0 17 -32 17 -110 1z"/>
<path d="M5437 1903 c-4 -3 -7 -36 -7 -73 l0 -67 -42 -6 c-24 -4 -57 -9 -75
-13 l-32 -6 -3 63 c-2 51 -6 64 -20 67 -17 3 -18 -10 -18 -163 0 -153 1 -166
18 -163 14 3 17 16 20 81 3 70 5 77 25 82 64 14 113 25 120 25 4 0 7 -34 7
-75 0 -68 2 -75 20 -75 19 0 20 7 20 165 0 131 -3 165 -13 165 -8 0 -17 -3
-20 -7z"/>
<path d="M5068 1837 c-86 -17 -108 -24 -108 -38 0 -14 6 -15 43 -8 23 4 45 8
50 9 4 0 7 -65 7 -145 0 -138 1 -145 20 -145 19 0 20 7 20 149 l0 149 43 7
c41 7 61 21 51 37 -3 4 -8 7 -12 7 -4 -1 -55 -11 -114 -22z"/>
<path d="M4773 1779 c-18 -6 -31 -35 -66 -146 -25 -76 -47 -131 -50 -123 -71
202 -82 225 -107 225 l-25 0 -10 -163 c-9 -146 -8 -162 6 -162 18 0 29 77 29
205 0 39 4 65 9 60 4 -6 26 -61 47 -122 27 -79 44 -113 55 -113 11 0 27 38 59
138 24 75 47 141 52 147 4 5 8 -22 8 -60 0 -39 3 -101 7 -138 5 -55 9 -67 22
-65 9 2 16 10 16 18 -2 81 -19 301 -24 304 -3 2 -16 0 -28 -5z"/>
<path d="M4301 1700 c-49 -12 -83 -40 -109 -91 -19 -36 -23 -56 -20 -112 3
-60 7 -71 36 -100 28 -27 40 -32 80 -32 99 0 168 91 160 212 -3 54 -8 68 -33
93 -35 33 -66 42 -114 30z m94 -71 c20 -38 19 -123 -2 -166 -33 -69 -114 -92
-155 -42 -61 73 -27 225 55 247 43 12 84 -4 102 -39z"/>
<path d="M3963 1638 l-43 -11 0 -136 c0 -147 5 -181 26 -181 9 0 14 20 16 73
l3 72 42 3 c47 3 56 -6 68 -70 8 -41 24 -61 42 -50 16 10 -12 111 -37 133 -16
14 -16 17 11 47 73 82 -2 152 -128 120z m101 -34 c17 -16 21 -52 8 -70 -15
-22 -58 -44 -84 -44 -27 0 -28 1 -28 59 0 57 1 60 28 64 52 8 61 7 76 -9z"/>
<path d="M3780 1609 c-101 -21 -90 1 -90 -179 0 -153 1 -160 20 -160 18 0 20
7 20 74 0 82 -3 79 78 91 28 5 42 12 42 22 0 12 -8 13 -42 8 -24 -3 -50 -9
-60 -11 -13 -4 -17 5 -23 45 -4 28 -4 54 -1 59 3 5 29 12 58 16 54 8 82 22 72
37 -6 10 -13 10 -74 -2z"/>
</g>
</svg>
